<svg width="37" height="37" viewBox="0 0 37 37" fill="none" xmlns="http://www.w3.org/2000/svg">
<path d="M0 18.5C0 8.28273 8.28273 0 18.5 0C28.7173 0 37 8.28273 37 18.5C37 28.7173 28.7173 37 18.5 37C8.28273 37 0 28.7173 0 18.5Z" fill="url(#paint0_linear_3745_4033)"/>
<path d="M19.0384 17.4155L18.2791 13.6947C18.2075 13.3433 18.476 13.0147 18.8344 13.0147C19.1036 13.0147 19.3359 13.2045 19.3897 13.468L20.1491 17.1889C20.1583 17.2349 20.171 17.2717 20.1845 17.3015C20.1986 17.2682 20.2142 17.2243 20.2248 17.1683L20.9707 13.4694C21.0238 13.2052 21.2562 13.0147 21.5261 13.0147C21.8838 13.0147 22.1522 13.3426 22.0814 13.6932L21.3369 17.3844C21.2477 17.8427 20.9056 18.5 20.1838 18.5C19.462 18.5 19.1142 17.8129 19.0377 17.4155H19.0384ZM16.0209 13.9667C16.3099 13.9667 16.5543 14.1593 16.6322 14.4235C16.6492 14.4809 16.6513 14.9583 17.2222 14.9583C17.7931 14.9583 17.7995 14.4632 17.7917 14.3945C17.6883 13.5155 16.9283 12.8333 16.0209 12.8333C15.0427 12.8333 14.2501 13.626 14.2501 14.6042V16.7292C14.2501 17.7074 15.0427 18.5 16.0209 18.5C16.9261 18.5 17.6855 17.8214 17.7917 16.9445C17.8002 16.8737 17.7691 16.375 17.2258 16.375C16.6825 16.375 16.6499 16.8489 16.6343 16.9041C16.5578 17.1705 16.312 17.3667 16.0209 17.3667C15.6696 17.3667 15.3834 17.0805 15.3834 16.7292V14.6042C15.3834 14.2528 15.6696 13.9667 16.0209 13.9667ZM25.5834 13.5417V19.5731C25.5834 20.897 25.0677 22.1423 24.1313 23.0794L21.6621 25.5472C20.7263 26.4836 19.4811 27 18.1558 27H14.9577C13.0048 27 11.416 25.4112 11.416 23.4583V13.5417C11.4167 11.5888 13.0055 10 14.9584 10H22.0417C23.9946 10 25.5834 11.5888 25.5834 13.5417ZM18.1565 25.5833C18.2734 25.5833 18.3853 25.5607 18.5001 25.55V22.0417C18.5001 20.8701 19.4535 19.9167 20.6251 19.9167H24.1334C24.1448 19.8019 24.1667 19.6893 24.1667 19.5731V13.5417C24.1667 12.3701 23.2133 11.4167 22.0417 11.4167H14.9584C13.7868 11.4167 12.8334 12.3701 12.8334 13.5417V23.4583C12.8334 24.6299 13.7868 25.5833 14.9584 25.5833H18.1565ZM23.1297 22.0778C23.3528 21.8547 23.5292 21.5997 23.6829 21.3333H20.6258C20.2355 21.3333 19.9174 21.6507 19.9174 22.0417V25.0988C20.1838 24.9451 20.4381 24.7687 20.6612 24.5456L23.1304 22.0778H23.1297Z" fill="white"/>
<defs>
<linearGradient id="paint0_linear_3745_4033" x1="30.5" y1="32" x2="7" y2="6.5" gradientUnits="userSpaceOnUse">
<stop stop-color="#F17F40"/>
<stop offset="1" stop-color="#E8516B"/>
</linearGradient>
</defs>
</svg>
