<svg width="37" height="37" viewBox="0 0 37 37" fill="none" xmlns="http://www.w3.org/2000/svg">
<path d="M0 18.5C0 8.28273 8.28273 0 18.5 0C28.7173 0 37 8.28273 37 18.5C37 28.7173 28.7173 37 18.5 37C8.28273 37 0 28.7173 0 18.5Z" fill="url(#paint0_linear_3745_2492)"/>
<g clip-path="url(#clip0_3745_2492)">
<path d="M23.1035 18.5C21.5919 18.5 20.3077 19.5214 19.9762 21.0033L19.2423 24.7383C19.2013 24.9458 19.2558 25.1612 19.3904 25.3248C19.525 25.4884 19.7261 25.5833 19.9372 25.5833H21.5274C21.6167 26.3788 22.2839 27 23.1035 27C23.923 27 24.5903 26.3788 24.6795 25.5833H26.2669C26.4787 25.5833 26.6798 25.4884 26.8144 25.3241C26.949 25.1605 27.0028 24.9444 26.9617 24.7369L26.1705 20.7709C25.7703 19.4336 24.5088 18.5 23.1027 18.5H23.1035ZM20.7992 24.1667L21.3631 21.2944C21.5444 20.4833 22.2605 19.9167 23.1035 19.9167C23.8883 19.9167 24.5924 20.4352 24.7978 21.1123L25.4041 24.1667H20.7985H20.7992ZM24.875 11.4167H22.75V10H21.3333V11.4167H15.6667V10H14.25V11.4167H12.125C10.9534 11.4167 10 12.3701 10 13.5417V27H19.9379C19.3004 27 18.7019 26.7174 18.2967 26.2251C18.138 26.0324 18.0282 25.8121 17.9468 25.5833H11.4167V17.0833H25.5833V17.8264C26.1507 18.189 26.6352 18.6686 27 19.2409V13.5417C27 12.3701 26.0466 11.4167 24.875 11.4167ZM11.4167 15.6667V13.5417C11.4167 13.1514 11.7347 12.8333 12.125 12.8333H24.875C25.2653 12.8333 25.5833 13.1514 25.5833 13.5417V15.6667H11.4167Z" fill="white"/>
</g>
<defs>
<linearGradient id="paint0_linear_3745_2492" x1="30.5" y1="32" x2="7" y2="6.5" gradientUnits="userSpaceOnUse">
<stop stop-color="#F17F40"/>
<stop offset="1" stop-color="#E8516B"/>
</linearGradient>
<clipPath id="clip0_3745_2492">
<rect width="17" height="17" fill="white" transform="translate(10 10)"/>
</clipPath>
</defs>
</svg>
