<svg width="28" height="28" viewBox="0 0 28 28" fill="none" xmlns="http://www.w3.org/2000/svg">
<circle cx="14" cy="14" r="14" fill="#EBEFFF"/>
<path d="M14.3804 19.7645C13.91 19.7645 13.4589 19.5777 13.1262 19.245C12.7936 18.9124 12.6067 18.4612 12.6067 17.9908C12.6067 17.8732 12.6534 17.7604 12.7366 17.6772C12.8197 17.5941 12.9325 17.5474 13.0501 17.5474H15.7108C15.8284 17.5474 15.9412 17.5941 16.0243 17.6772C16.1075 17.7604 16.1542 17.8732 16.1542 17.9908C16.1542 18.4612 15.9673 18.9124 15.6347 19.245C15.302 19.5777 14.8509 19.7645 14.3804 19.7645ZM13.6133 18.4342C13.6913 18.5686 13.8032 18.6802 13.9378 18.7577C14.0724 18.8353 14.2251 18.8761 14.3804 18.8761C14.5358 18.8761 14.6885 18.8353 14.8231 18.7577C14.9577 18.6802 15.0696 18.5686 15.1476 18.4342H13.6133Z" fill="#455CDC"/>
<path d="M15.267 10.0086H13.4932C13.3756 10.0086 13.2628 9.96188 13.1797 9.87872C13.0965 9.79556 13.0498 9.68278 13.0498 9.56517C13.0498 9.21235 13.19 8.87398 13.4394 8.6245C13.6889 8.37502 14.0273 8.23486 14.3801 8.23486C14.7329 8.23486 15.0713 8.37502 15.3208 8.6245C15.5703 8.87398 15.7104 9.21235 15.7104 9.56517C15.7104 9.68278 15.6637 9.79556 15.5806 9.87872C15.4974 9.96188 15.3846 10.0086 15.267 10.0086Z" fill="#455CDC"/>
<path d="M19.2567 18.4349H9.50106C9.38345 18.4349 9.27066 18.3882 9.1875 18.3051C9.10434 18.2219 9.05762 18.1091 9.05762 17.9915C9.05723 17.4907 9.17801 16.9973 9.40967 16.5533C9.64132 16.1093 9.97696 15.7279 10.3879 15.4418V13.1137C10.3879 12.0599 10.8047 11.0488 11.5474 10.3011C12.2901 9.5534 13.2984 9.12983 14.3523 9.1228H14.4011C15.4595 9.1228 16.4746 9.54327 17.2231 10.2917C17.9715 11.0402 18.392 12.0553 18.392 13.1137V15.4418C18.7989 15.7304 19.1302 16.1128 19.3579 16.5566C19.5857 17.0005 19.703 17.4927 19.7002 17.9915C19.7002 18.1091 19.6534 18.2219 19.5703 18.3051C19.4871 18.3882 19.3743 18.4349 19.2567 18.4349ZM9.98884 17.5481H18.7689C18.7061 17.2406 18.5788 16.9501 18.3953 16.6955C18.2119 16.441 17.9765 16.2282 17.7047 16.0714C17.637 16.0324 17.5809 15.9761 17.5419 15.9084C17.503 15.8406 17.4826 15.7638 17.483 15.6856V13.1137C17.483 12.2905 17.1559 11.5009 16.5738 10.9188C15.9917 10.3367 15.2021 10.0097 14.3789 10.0097C13.5556 10.0097 12.7661 10.3367 12.184 10.9188C11.6018 11.5009 11.2748 12.2905 11.2748 13.1137V15.6856C11.2751 15.7638 11.2548 15.8406 11.2158 15.9084C11.1769 15.9761 11.1208 16.0324 11.0531 16.0714C10.7813 16.2282 10.5459 16.441 10.3624 16.6955C10.179 16.9501 10.0516 17.2406 9.98884 17.5481Z" fill="#455CDC"/>
</svg>
