<svg width="23" height="22" viewBox="0 0 23 22" fill="none" xmlns="http://www.w3.org/2000/svg">
<rect width="22.7097" height="22" rx="4" fill="#455CDC"/>
<path d="M9.73273 5.10104V5.94378H12.977V5.10104C12.977 4.63569 13.3394 4.2583 13.788 4.2583C14.2366 4.2583 14.5991 4.63569 14.5991 5.10104V5.94378H15.8157C16.4873 5.94378 17.0323 6.50974 17.0323 7.2079V8.47201H5.67743V7.2079C5.67743 6.50974 6.22211 5.94378 6.89402 5.94378H8.11061V5.10104C8.11061 4.63569 8.47305 4.2583 8.92167 4.2583C9.37029 4.2583 9.73273 4.63569 9.73273 5.10104ZM5.67743 9.31475H17.0323V16.4781C17.0323 17.176 16.4873 17.7422 15.8157 17.7422H6.89402C6.22211 17.7422 5.67743 17.176 5.67743 16.4781V9.31475ZM7.29955 12.2643C7.29955 12.4961 7.48102 12.6857 7.70508 12.6857H8.51614C8.73918 12.6857 8.92167 12.4961 8.92167 12.2643V11.4216C8.92167 11.1899 8.73918 11.0002 8.51614 11.0002H7.70508C7.48102 11.0002 7.29955 11.1899 7.29955 11.4216V12.2643ZM10.5438 12.2643C10.5438 12.4961 10.7263 12.6857 10.9493 12.6857H11.7604C11.9834 12.6857 12.1659 12.4961 12.1659 12.2643V11.4216C12.1659 11.1899 11.9834 11.0002 11.7604 11.0002H10.9493C10.7263 11.0002 10.5438 11.1899 10.5438 11.4216V12.2643ZM14.1936 11.0002C13.9705 11.0002 13.788 11.1899 13.788 11.4216V12.2643C13.788 12.4961 13.9705 12.6857 14.1936 12.6857H15.0046C15.2277 12.6857 15.4101 12.4961 15.4101 12.2643V11.4216C15.4101 11.1899 15.2277 11.0002 15.0046 11.0002H14.1936ZM7.29955 15.6353C7.29955 15.8671 7.48102 16.0567 7.70508 16.0567H8.51614C8.73918 16.0567 8.92167 15.8671 8.92167 15.6353V14.7926C8.92167 14.5608 8.73918 14.3712 8.51614 14.3712H7.70508C7.48102 14.3712 7.29955 14.5608 7.29955 14.7926V15.6353ZM10.9493 14.3712C10.7263 14.3712 10.5438 14.5608 10.5438 14.7926V15.6353C10.5438 15.8671 10.7263 16.0567 10.9493 16.0567H11.7604C11.9834 16.0567 12.1659 15.8671 12.1659 15.6353V14.7926C12.1659 14.5608 11.9834 14.3712 11.7604 14.3712H10.9493ZM13.788 15.6353C13.788 15.8671 13.9705 16.0567 14.1936 16.0567H15.0046C15.2277 16.0567 15.4101 15.8671 15.4101 15.6353V14.7926C15.4101 14.5608 15.2277 14.3712 15.0046 14.3712H14.1936C13.9705 14.3712 13.788 14.5608 13.788 14.7926V15.6353Z" fill="white"/>
</svg>
