<svg width="22" height="24" viewBox="0 0 22 24" fill="none" xmlns="http://www.w3.org/2000/svg">
<path d="M11 0C8.82441 0 6.69767 0.676128 4.88873 1.94288C3.07979 3.20964 1.66989 5.01013 0.83733 7.11666C0.00476615 9.2232 -0.213071 11.5412 0.211367 13.7775C0.635804 16.0137 1.68345 18.0679 3.22183 19.6802C4.76021 21.2925 6.72022 22.3904 8.85401 22.8353C10.9878 23.2801 13.1995 23.0518 15.2095 22.1792C17.2195 21.3067 18.9375 19.829 20.1462 17.9332C21.3549 16.0374 22 13.8085 22 11.5284C21.9968 8.47191 20.8368 5.5416 18.7746 3.38035C16.7124 1.2191 13.9164 0.00340736 11 0ZM15.3148 14.692C15.4023 14.7806 15.4721 14.8866 15.5202 15.0038C15.5682 15.121 15.5935 15.2471 15.5946 15.3746C15.5956 15.5022 15.5724 15.6287 15.5263 15.7468C15.4803 15.8648 15.4122 15.9721 15.3261 16.0623C15.2401 16.1525 15.1377 16.2238 15.025 16.2721C14.9124 16.3204 14.7917 16.3448 14.67 16.3436C14.5483 16.3425 14.428 16.316 14.3161 16.2657C14.2043 16.2153 14.1031 16.1421 14.0186 16.0504L11 12.8869L7.98142 16.0504C7.80854 16.2254 7.57699 16.3222 7.33664 16.32C7.09629 16.3178 6.86638 16.2168 6.69642 16.0387C6.52646 15.8606 6.43006 15.6196 6.42797 15.3677C6.42588 15.1158 6.51828 14.8732 6.68526 14.692L9.70375 11.5284L6.68526 8.3648C6.51828 8.18361 6.42588 7.94094 6.42797 7.68905C6.43006 7.43715 6.52646 7.1962 6.69642 7.01808C6.86638 6.83996 7.09629 6.73892 7.33664 6.73673C7.57699 6.73454 7.80854 6.83138 7.98142 7.00638L11 10.1699L14.0186 7.00638C14.1915 6.83138 14.423 6.73454 14.6634 6.73673C14.9037 6.73892 15.1336 6.83996 15.3036 7.01808C15.4735 7.1962 15.57 7.43715 15.572 7.68905C15.5741 7.94094 15.4817 8.18361 15.3148 8.3648L12.2963 11.5284L15.3148 14.692Z" fill="#081026"/>
</svg>
