<svg width="9" height="12" viewBox="0 0 9 12" fill="none" xmlns="http://www.w3.org/2000/svg">
<path d="M8.3081 2.66666H6.77901C6.64576 2.18119 6.41024 1.72733 6.08712 1.33333H8.3081C8.49161 1.33333 8.66759 1.26309 8.79735 1.13807C8.9271 1.01304 9 0.843475 9 0.666665C9 0.489854 8.9271 0.320285 8.79735 0.195262C8.66759 0.0702377 8.49161 0 8.3081 0H0.69725C0.513748 0 0.337762 0.0702377 0.208006 0.195262C0.0782503 0.320285 0.00535415 0.489854 0.00535415 0.666665C0.00535415 0.843475 0.0782503 1.01304 0.208006 1.13807C0.337762 1.26309 0.513748 1.33333 0.69725 1.33333H3.11889C3.5757 1.33487 4.02275 1.46089 4.4084 1.69682C4.79405 1.93275 5.10258 2.26897 5.29836 2.66666H0.69725C0.513748 2.66666 0.337762 2.7369 0.208006 2.86192C0.0782503 2.98694 0.00535415 3.15651 0.00535415 3.33332C0.00535415 3.51013 0.0782503 3.6797 0.208006 3.80473C0.337762 3.92975 0.513748 3.99999 0.69725 3.99999H5.54052C5.45758 4.55372 5.1709 5.0603 4.73275 5.42742C4.29459 5.79453 3.73412 5.99773 3.15348 5.99998H0.69725C0.665043 5.99686 0.632592 5.99686 0.600385 5.99998C0.554534 5.9931 0.507855 5.9931 0.462005 5.99998C0.414843 6.01546 0.370486 6.03795 0.330545 6.06665L0.247518 6.11332C0.209617 6.14629 0.176977 6.18448 0.150652 6.22665C0.127479 6.2562 0.106662 6.2874 0.0883816 6.31998C0.0822229 6.35976 0.0822229 6.4002 0.0883816 6.43998C0.039076 6.50648 0.0102927 6.58506 0.00535415 6.66665C0.00211719 6.69768 0.00211719 6.72895 0.00535415 6.75998C-0.00178472 6.80416 -0.00178472 6.84913 0.00535415 6.89331C0.0214165 6.93875 0.0447622 6.98149 0.0745437 7.01998C0.0745437 7.01998 0.0745438 7.07331 0.122976 7.09998L4.27435 11.7666C4.39363 11.901 4.56342 11.9842 4.74638 11.998C4.92933 12.0117 5.11046 11.9549 5.24992 11.84C5.38939 11.725 5.47575 11.5614 5.49003 11.3852C5.5043 11.2089 5.44531 11.0343 5.32603 10.9L2.20558 7.33331H3.11889C4.07097 7.33711 4.98995 6.99689 5.69445 6.37979C6.39894 5.7627 6.83777 4.91357 6.92431 3.99999H8.3081C8.49161 3.99999 8.66759 3.92975 8.79735 3.80473C8.9271 3.6797 9 3.51013 9 3.33332C9 3.15651 8.9271 2.98694 8.79735 2.86192C8.66759 2.7369 8.49161 2.66666 8.3081 2.66666Z" fill="#2F65CA"/>
</svg>
