<svg width="37" height="37" viewBox="0 0 37 37" fill="none" xmlns="http://www.w3.org/2000/svg">
<path d="M0 18.5C0 8.28273 8.28273 0 18.5 0C28.7173 0 37 8.28273 37 18.5C37 28.7173 28.7173 37 18.5 37C8.28273 37 0 28.7173 0 18.5Z" fill="url(#paint0_linear_3745_2486)"/>
<g clip-path="url(#clip0_3745_2486)">
<path d="M17.4375 14.25H19.5625C20.3438 14.25 20.9792 13.6146 20.9792 12.8333V11.4167C20.9792 10.6354 20.3438 10 19.5625 10H17.4375C16.6562 10 16.0208 10.6354 16.0208 11.4167V12.8333C16.0208 13.6146 16.6562 14.25 17.4375 14.25ZM17.4375 11.4167H19.5625V12.8333H17.4375V11.4167ZM19.5625 22.75H17.4375C16.6562 22.75 16.0208 23.3854 16.0208 24.1667V25.5833C16.0208 26.3646 16.6562 27 17.4375 27H19.5625C20.3438 27 20.9792 26.3646 20.9792 25.5833V24.1667C20.9792 23.3854 20.3438 22.75 19.5625 22.75ZM19.5625 25.5833H17.4375V24.1667H19.5625V25.5833ZM25.5833 22.75H23.4583C22.677 22.75 22.0417 23.3854 22.0417 24.1667V25.5833C22.0417 26.3646 22.677 27 23.4583 27H25.5833C26.3646 27 27 26.3646 27 25.5833V24.1667C27 23.3854 26.3646 22.75 25.5833 22.75ZM25.5833 25.5833H23.4583V24.1667H25.5833V25.5833ZM13.5417 22.75H11.4167C10.6354 22.75 10 23.3854 10 24.1667V25.5833C10 26.3646 10.6354 27 11.4167 27H13.5417C14.323 27 14.9583 26.3646 14.9583 25.5833V24.1667C14.9583 23.3854 14.323 22.75 13.5417 22.75ZM13.5417 25.5833H11.4167V24.1667H13.5417V25.5833ZM13.1875 21.3333H11.7708V19.5625C11.7708 18.5857 12.5656 17.7917 13.5417 17.7917H17.7917V15.6667H19.2083V17.7917H23.4583C24.4351 17.7917 25.2292 18.5857 25.2292 19.5625V21.3333H23.8125V19.5625C23.8125 19.3677 23.6531 19.2083 23.4583 19.2083H19.2083V21.3333H17.7917V19.2083H13.5417C13.3462 19.2083 13.1875 19.3677 13.1875 19.5625V21.3333Z" fill="white"/>
</g>
<defs>
<linearGradient id="paint0_linear_3745_2486" x1="30.5" y1="32" x2="7" y2="6.5" gradientUnits="userSpaceOnUse">
<stop stop-color="#33CBBF"/>
<stop offset="1" stop-color="#31C58C"/>
</linearGradient>
<clipPath id="clip0_3745_2486">
<rect width="17" height="17" fill="white" transform="translate(10 10)"/>
</clipPath>
</defs>
</svg>
