<svg width="37" height="37" viewBox="0 0 37 37" fill="none" xmlns="http://www.w3.org/2000/svg">
<path d="M0 18.5C0 8.28273 8.28273 0 18.5 0C28.7173 0 37 8.28273 37 18.5C37 28.7173 28.7173 37 18.5 37C8.28273 37 0 28.7173 0 18.5Z" fill="url(#paint0_linear_3882_1821)"/>
<g clip-path="url(#clip0_3882_1821)">
<path d="M21.3333 12.1247C21.3333 11.1125 21.7377 10.708 22.7499 10.708C23.7622 10.708 24.1666 11.1125 24.1666 12.1247C24.1666 13.1369 23.7622 13.5413 22.7499 13.5413C21.7377 13.5413 21.3333 13.1369 21.3333 12.1247ZM21.3333 23.458C20.9416 23.458 20.6249 23.7753 20.6249 24.1663V25.583C20.6249 25.974 20.9416 26.2913 21.3333 26.2913C21.725 26.2913 22.0416 25.974 22.0416 25.583V24.1663C22.0416 23.7753 21.725 23.458 21.3333 23.458ZM25.9587 15.0267C25.8942 14.7469 25.6669 14.5337 25.3835 14.487C25.3247 14.477 23.9272 14.2504 22.7499 14.2504C22.5049 14.2504 22.2492 14.2603 21.997 14.2759C21.6067 14.3007 21.3099 14.6364 21.334 15.0274C21.3581 15.4184 21.6995 15.7117 22.0855 15.6904C22.3079 15.6763 22.5339 15.6678 22.7499 15.6678C23.4137 15.6678 24.1822 15.7528 24.6681 15.8158C24.7559 16.3272 24.8749 17.1992 24.8749 18.1469C24.8749 19.0947 24.7559 19.9659 24.6681 20.478C24.1822 20.5418 23.4137 20.6261 22.7499 20.6261C22.3582 20.6261 22.0416 20.9434 22.0416 21.3344C22.0416 21.7254 22.3582 22.0428 22.7499 22.0428C22.9816 22.0428 23.221 22.0321 23.4583 22.018V25.5844C23.4583 25.9754 23.7749 26.2928 24.1666 26.2928C24.5583 26.2928 24.8749 25.9754 24.8749 25.5844V21.8798C25.1661 21.8409 25.3623 21.8097 25.3835 21.8062C25.6669 21.7594 25.8949 21.5462 25.9587 21.2664C25.9729 21.2076 26.2916 19.803 26.2916 18.1476C26.2916 16.4923 25.9729 15.0876 25.9587 15.0288V15.0267ZM21.1916 20.9087C20.7496 20.318 20.2254 19.7938 19.6333 19.3504C19.3209 19.1152 18.8768 19.1797 18.6423 19.492C18.4072 19.8051 18.4709 20.2493 18.784 20.4837C18.8435 20.5283 18.8973 20.5793 18.9547 20.6254H17.084C16.6923 20.6254 16.3757 20.9427 16.3757 21.3337C16.3757 21.7247 16.6923 22.042 17.084 22.042H18.9547C18.8973 22.0888 18.8435 22.1391 18.784 22.1837C18.4709 22.4182 18.4072 22.8623 18.6423 23.1754C18.7812 23.361 18.9937 23.4587 19.2097 23.4587C19.3577 23.4587 19.5065 23.4127 19.634 23.317C20.2262 22.8736 20.7503 22.3495 21.1923 21.7587C21.3814 21.5073 21.3814 21.1609 21.1923 20.9094L21.1916 20.9087ZM17.3673 19.0663C17.4948 19.162 17.6436 19.208 17.7916 19.208C18.0077 19.208 18.2194 19.1103 18.359 18.9247C18.5942 18.6116 18.5304 18.1675 18.2173 17.933C18.1578 17.8884 18.104 17.8374 18.0466 17.7913H19.9173C20.309 17.7913 20.6257 17.474 20.6257 17.083C20.6257 16.692 20.309 16.3747 19.9173 16.3747H18.0466C18.104 16.3279 18.1578 16.2776 18.2173 16.233C18.5304 15.9985 18.5942 15.5544 18.359 15.2413C18.1245 14.9283 17.6804 14.8638 17.368 15.0997C16.7759 15.5431 16.2517 16.0673 15.8097 16.658C15.6206 16.9095 15.6206 17.2558 15.8097 17.5073C16.2517 18.098 16.7759 18.6222 17.368 19.0656L17.3673 19.0663ZM14.2499 13.5413C15.2622 13.5413 15.6666 13.1369 15.6666 12.1247C15.6666 11.1125 15.2622 10.708 14.2499 10.708C13.2377 10.708 12.8333 11.1125 12.8333 12.1247C12.8333 13.1369 13.2377 13.5413 14.2499 13.5413ZM15.6666 22.7497C15.2749 22.7497 14.9583 23.067 14.9583 23.458V25.583C14.9583 25.974 15.2749 26.2913 15.6666 26.2913C16.0583 26.2913 16.3749 25.974 16.3749 25.583V23.458C16.3749 23.067 16.0583 22.7497 15.6666 22.7497ZM14.2499 20.6247C13.5862 20.6247 12.8177 20.5397 12.3318 20.4766C12.2439 19.9652 12.1249 19.0933 12.1249 18.1455C12.1249 17.1978 12.2439 16.3265 12.3318 15.8144C12.8177 15.7506 13.5862 15.6663 14.2499 15.6663C14.466 15.6663 14.6912 15.6755 14.9144 15.689C15.2969 15.7117 15.6411 15.417 15.6659 15.026C15.6907 14.635 15.3932 14.2993 15.0029 14.2745C14.7514 14.2589 14.495 14.249 14.2507 14.249C13.0734 14.249 11.6759 14.4763 11.6171 14.4855C11.3337 14.5323 11.1057 14.7455 11.0419 15.0253C11.0277 15.0841 10.709 16.4887 10.709 18.1441C10.709 19.7995 11.0277 21.2041 11.0419 21.2629C11.1064 21.5427 11.3337 21.7559 11.6171 21.8026C11.6383 21.8062 11.8345 21.8373 12.1257 21.8763V25.5809C12.1257 25.9719 12.4423 26.2892 12.834 26.2892C13.2257 26.2892 13.5423 25.9719 13.5423 25.5809V22.0144C13.7796 22.0286 14.019 22.0392 14.2507 22.0392C14.6424 22.0392 14.959 21.7219 14.959 21.3309C14.959 20.9399 14.6424 20.6225 14.2507 20.6225L14.2499 20.6247Z" fill="white"/>
</g>
<defs>
<linearGradient id="paint0_linear_3882_1821" x1="30.5" y1="32" x2="7" y2="6.5" gradientUnits="userSpaceOnUse">
<stop stop-color="#F17F40"/>
<stop offset="1" stop-color="#E8516B"/>
</linearGradient>
<clipPath id="clip0_3882_1821">
<rect width="17" height="17" fill="white" transform="translate(10 10)"/>
</clipPath>
</defs>
</svg>
