<svg width="37" height="37" viewBox="0 0 37 37" fill="none" xmlns="http://www.w3.org/2000/svg">
<path d="M0 18.5C0 8.28273 8.28273 0 18.5 0C28.7173 0 37 8.28273 37 18.5C37 28.7173 28.7173 37 18.5 37C8.28273 37 0 28.7173 0 18.5Z" fill="url(#paint0_linear_3882_1826)"/>
<g clip-path="url(#clip0_3882_1826)">
<path d="M23.4583 12.8333H22.6785C22.3491 11.219 20.9183 10 19.2083 10H13.5417C11.5888 10 10 11.5888 10 13.5417V22.6466C10 23.209 10.3081 23.7232 10.8032 23.9882C11.0285 24.1093 11.2757 24.1688 11.5222 24.1688C11.8169 24.1688 12.1108 24.0831 12.3651 23.9138L14.4547 22.5205C14.9442 23.8911 16.2546 24.875 17.7917 24.875H21.827L24.6349 26.7471C24.8899 26.9171 25.1831 27.0028 25.4778 27.0028C25.7243 27.0028 25.9708 26.9426 26.1967 26.8215C26.6926 26.5566 27 26.0423 27 25.4799V16.375C27 14.4221 25.4112 12.8333 23.4583 12.8333ZM11.5796 22.7351C11.5661 22.7436 11.5265 22.7691 11.4719 22.7401C11.416 22.7103 11.416 22.6629 11.416 22.6473V13.5417C11.416 12.3701 12.3694 11.4167 13.541 11.4167H19.2076C20.3792 11.4167 21.3326 12.3701 21.3326 13.5417V18.5C21.3326 19.6716 20.3792 20.625 19.2076 20.625H14.9576C14.726 20.625 14.5744 20.7376 14.5574 20.749L11.5796 22.7351ZM25.5833 25.4806C25.5833 25.4955 25.5833 25.5437 25.5274 25.5734C25.4714 25.6025 25.4332 25.577 25.4204 25.5685L22.4348 23.5773C22.3186 23.5001 22.1819 23.4583 22.0417 23.4583H17.7917C16.868 23.4583 16.081 22.8662 15.7885 22.0417H19.2083C21.1612 22.0417 22.75 20.4529 22.75 18.5V14.25H23.4583C24.6299 14.25 25.5833 15.2034 25.5833 16.375V25.4806Z" fill="white"/>
</g>
<defs>
<linearGradient id="paint0_linear_3882_1826" x1="30.5" y1="32" x2="7" y2="6.5" gradientUnits="userSpaceOnUse">
<stop stop-color="#33CBBF"/>
<stop offset="1" stop-color="#31C58C"/>
</linearGradient>
<clipPath id="clip0_3882_1826">
<rect width="17" height="17" fill="white" transform="translate(10 10)"/>
</clipPath>
</defs>
</svg>
