<svg width="37" height="37" viewBox="0 0 37 37" fill="none" xmlns="http://www.w3.org/2000/svg">
<path d="M0 18.5C0 8.28273 8.28273 0 18.5 0C28.7173 0 37 8.28273 37 18.5C37 28.7173 28.7173 37 18.5 37C8.28273 37 0 28.7173 0 18.5Z" fill="url(#paint0_linear_3882_1779)"/>
<g clip-path="url(#clip0_3882_1779)">
<path d="M23.4583 12.8333H22.6792C22.5148 12.0339 22.0798 11.3156 21.4476 10.7995C20.8153 10.2834 20.0245 10.001 19.2083 10L17.7917 10C16.9755 10.001 16.1847 10.2834 15.5524 10.7995C14.9202 11.3156 14.4852 12.0339 14.3208 12.8333H13.5417C12.6027 12.8345 11.7025 13.208 11.0386 13.8719C10.3746 14.5359 10.0011 15.436 10 16.375V23.4583C10.0011 24.3973 10.3746 25.2975 11.0386 25.9614C11.7025 26.6254 12.6027 26.9989 13.5417 27H23.4583C24.3973 26.9989 25.2975 26.6254 25.9614 25.9614C26.6254 25.2975 26.9989 24.3973 27 23.4583V16.375C26.9989 15.436 26.6254 14.5359 25.9614 13.8719C25.2975 13.208 24.3973 12.8345 23.4583 12.8333ZM17.7917 11.4167H19.2083C19.6463 11.4185 20.0729 11.5556 20.43 11.8091C20.787 12.0627 21.057 12.4204 21.203 12.8333H15.797C15.943 12.4204 16.213 12.0627 16.57 11.8091C16.9271 11.5556 17.3537 11.4185 17.7917 11.4167ZM13.5417 14.25H23.4583C24.0219 14.25 24.5624 14.4739 24.9609 14.8724C25.3595 15.2709 25.5833 15.8114 25.5833 16.375V18.5H11.4167V16.375C11.4167 15.8114 11.6406 15.2709 12.0391 14.8724C12.4376 14.4739 12.9781 14.25 13.5417 14.25ZM23.4583 25.5833H13.5417C12.9781 25.5833 12.4376 25.3595 12.0391 24.9609C11.6406 24.5624 11.4167 24.0219 11.4167 23.4583V19.9167H17.7917V20.625C17.7917 20.8129 17.8663 20.993 17.9991 21.1259C18.132 21.2587 18.3121 21.3333 18.5 21.3333C18.6879 21.3333 18.868 21.2587 19.0009 21.1259C19.1337 20.993 19.2083 20.8129 19.2083 20.625V19.9167H25.5833V23.4583C25.5833 24.0219 25.3595 24.5624 24.9609 24.9609C24.5624 25.3595 24.0219 25.5833 23.4583 25.5833Z" fill="white"/>
</g>
<defs>
<linearGradient id="paint0_linear_3882_1779" x1="30.5" y1="32" x2="7" y2="6.5" gradientUnits="userSpaceOnUse">
<stop stop-color="#F17F40"/>
<stop offset="1" stop-color="#E8516B"/>
</linearGradient>
<clipPath id="clip0_3882_1779">
<rect width="17" height="17" fill="white" transform="translate(10 10)"/>
</clipPath>
</defs>
</svg>
