<svg width="37" height="37" viewBox="0 0 37 37" fill="none" xmlns="http://www.w3.org/2000/svg">
<path d="M0 18.5C0 8.28273 8.28273 0 18.5 0C28.7173 0 37 8.28273 37 18.5C37 28.7173 28.7173 37 18.5 37C8.28273 37 0 28.7173 0 18.5Z" fill="url(#paint0_linear_3882_1803)"/>
<g clip-path="url(#clip0_3882_1803)">
<path d="M18.5 10C16.8189 10 15.1755 10.4985 13.7777 11.4325C12.3798 12.3665 11.2904 13.694 10.647 15.2472C10.0037 16.8004 9.83535 18.5094 10.1633 20.1583C10.4913 21.8071 11.3008 23.3217 12.4896 24.5104C13.6783 25.6992 15.1929 26.5087 16.8417 26.8367C18.4906 27.1646 20.1996 26.9963 21.7528 26.353C23.306 25.7096 24.6335 24.6202 25.5675 23.2223C26.5015 21.8245 27 20.1811 27 18.5C26.9976 16.2464 26.1013 14.0858 24.5077 12.4923C22.9142 10.8988 20.7536 10.0024 18.5 10ZM18.5 25.5833C17.0991 25.5833 15.7296 25.1679 14.5647 24.3896C13.3999 23.6112 12.492 22.505 11.9559 21.2107C11.4197 19.9164 11.2795 18.4921 11.5528 17.1181C11.8261 15.7441 12.5007 14.4819 13.4913 13.4913C14.482 12.5007 15.7441 11.8261 17.1181 11.5528C18.4921 11.2795 19.9164 11.4197 21.2107 11.9559C22.505 12.492 23.6113 13.3999 24.3896 14.5647C25.1679 15.7296 25.5833 17.099 25.5833 18.5C25.5813 20.378 24.8343 22.1785 23.5064 23.5064C22.1785 24.8343 20.378 25.5813 18.5 25.5833Z" fill="white"/>
<path d="M18.4999 17.083H17.7916C17.6037 17.083 17.4236 17.1576 17.2907 17.2905C17.1579 17.4233 17.0833 17.6035 17.0833 17.7913C17.0833 17.9792 17.1579 18.1594 17.2907 18.2922C17.4236 18.425 17.6037 18.4997 17.7916 18.4997H18.4999V22.7497C18.4999 22.9375 18.5745 23.1177 18.7074 23.2505C18.8402 23.3834 19.0204 23.458 19.2083 23.458C19.3961 23.458 19.5763 23.3834 19.7091 23.2505C19.842 23.1177 19.9166 22.9375 19.9166 22.7497V18.4997C19.9166 18.124 19.7673 17.7636 19.5017 17.4979C19.236 17.2323 18.8756 17.083 18.4999 17.083Z" fill="white"/>
<path d="M18.5 15.667C19.0868 15.667 19.5625 15.1913 19.5625 14.6045C19.5625 14.0177 19.0868 13.542 18.5 13.542C17.9132 13.542 17.4375 14.0177 17.4375 14.6045C17.4375 15.1913 17.9132 15.667 18.5 15.667Z" fill="white"/>
</g>
<defs>
<linearGradient id="paint0_linear_3882_1803" x1="30.5" y1="32" x2="7" y2="6.5" gradientUnits="userSpaceOnUse">
<stop stop-color="#874DE1"/>
<stop offset="1" stop-color="#545EE8"/>
</linearGradient>
<clipPath id="clip0_3882_1803">
<rect width="17" height="17" fill="white" transform="translate(10 10)"/>
</clipPath>
</defs>
</svg>
