<svg width="37" height="37" viewBox="0 0 37 37" fill="none" xmlns="http://www.w3.org/2000/svg">
<path d="M0 18.5C0 8.28273 8.28273 0 18.5 0C28.7173 0 37 8.28273 37 18.5C37 28.7173 28.7173 37 18.5 37C8.28273 37 0 28.7173 0 18.5Z" fill="url(#paint0_linear_3882_1797)"/>
<g clip-path="url(#clip0_3882_1797)">
<path d="M24.1667 12.125H21.033C20.4847 10.8762 19.2402 10 17.7917 10H13.5417C11.5888 10 10 11.5888 10 13.5417V23.4583C10 25.4112 11.5888 27 13.5417 27H17.7917C19.7445 27 21.3333 25.4112 21.3333 23.4583V21.3333H24.1667C25.7292 21.3333 27 20.0626 27 18.5V14.9583C27 13.3957 25.7292 12.125 24.1667 12.125ZM24.1667 13.5417C24.948 13.5417 25.5833 14.177 25.5833 14.9583H21.3333V13.5417H24.1667ZM19.9167 23.4583C19.9167 24.6299 18.9633 25.5833 17.7917 25.5833H13.5417C12.3701 25.5833 11.4167 24.6299 11.4167 23.4583V22.75H19.9167V23.4583ZM19.9167 21.3333H11.4167V13.5417C11.4167 12.3701 12.3701 11.4167 13.5417 11.4167H17.7917C18.9633 11.4167 19.9167 12.3701 19.9167 13.5417V21.3333ZM24.1667 19.9167H21.3333V16.375H25.5833V18.5C25.5833 19.2813 24.948 19.9167 24.1667 19.9167ZM18.6289 14.534C18.9151 14.8004 18.9314 15.2487 18.665 15.5349L16.4494 17.9149C15.712 18.6863 14.4327 18.6884 13.6975 17.9333L12.6867 16.9218C12.4097 16.6449 12.4097 16.1965 12.6867 15.9202C12.9637 15.6433 13.4113 15.6433 13.6883 15.9202L14.6991 16.931C14.8946 17.1265 15.2353 17.1258 15.4294 16.931L17.6273 14.5695C17.8951 14.2833 18.3427 14.2684 18.6289 14.534ZM14.25 24.1667C14.25 23.7757 14.5666 23.4583 14.9583 23.4583H16.375C16.7667 23.4583 17.0833 23.7757 17.0833 24.1667C17.0833 24.5577 16.7667 24.875 16.375 24.875H14.9583C14.5666 24.875 14.25 24.5577 14.25 24.1667Z" fill="white"/>
</g>
<defs>
<linearGradient id="paint0_linear_3882_1797" x1="30.5" y1="32" x2="7" y2="6.5" gradientUnits="userSpaceOnUse">
<stop stop-color="#874DE1"/>
<stop offset="1" stop-color="#545EE8"/>
</linearGradient>
<clipPath id="clip0_3882_1797">
<rect width="17" height="17" fill="white" transform="translate(10 10)"/>
</clipPath>
</defs>
</svg>
