<svg width="37" height="37" viewBox="0 0 37 37" fill="none" xmlns="http://www.w3.org/2000/svg">
<path d="M0 18.5C0 8.28273 8.28273 0 18.5 0C28.7173 0 37 8.28273 37 18.5C37 28.7173 28.7173 37 18.5 37C8.28273 37 0 28.7173 0 18.5Z" fill="url(#paint0_linear_3882_1810)"/>
<g clip-path="url(#clip0_3882_1810)">
<path d="M22.6323 13.3592L25.7915 10.2064C26.0671 9.93085 26.5161 9.93014 26.7931 10.2071C27.0693 10.4841 27.0693 10.9324 26.7917 11.2094L23.6332 14.3615C22.8866 15.1399 21.5415 15.1392 20.7949 14.3615C20.518 14.0845 20.518 13.6361 20.7949 13.3592C21.0719 13.0829 21.5196 13.0829 21.7965 13.3592C22.0189 13.5823 22.4092 13.5823 22.6323 13.3592ZM11.2324 14.3615C11.979 15.1399 13.3234 15.1406 14.0707 14.3615L17.2292 11.2094C17.5069 10.9324 17.5069 10.4848 17.2306 10.2071C16.9536 9.92943 16.5046 9.93085 16.229 10.2064L13.0698 13.3592C12.8474 13.5823 12.4564 13.5823 12.2347 13.3599L11.2098 12.3321C10.9328 12.0544 10.4851 12.0544 10.2082 12.3307C9.93052 12.6069 9.93052 13.0553 10.2068 13.3323L11.2324 14.3615ZM26.5154 21.7529C27.1593 22.5356 27.1593 23.6718 26.5154 24.4545L25.4834 25.709C24.8076 26.5292 23.8117 26.9996 22.7492 26.9996H12.8333C11.2707 26.9996 9.99993 25.7288 9.99993 24.1662V22.0412C9.99993 20.7251 10.9059 19.6251 12.1249 19.3085V17.0829C12.1249 16.6919 12.4416 16.3746 12.8333 16.3746C13.225 16.3746 13.5416 16.6919 13.5416 17.0829V19.2079H17.0833V17.0829C17.0833 16.6919 17.3999 16.3746 17.7916 16.3746C18.1833 16.3746 18.4999 16.6919 18.4999 17.0829V19.2079H22.0416V17.0829C22.0416 16.6919 22.3582 16.3746 22.7499 16.3746C23.1416 16.3746 23.4583 16.6919 23.4583 17.0829V19.2823C24.2459 19.4423 24.9606 19.8645 25.4827 20.4985L26.5154 21.7529ZM18.7925 20.6246H15.6701L16.5988 21.7529C17.2426 22.5356 17.2426 23.6718 16.5988 24.4545L15.6701 25.5829H18.7932L20.4634 23.5542C20.6788 23.2936 20.6788 22.9146 20.4634 22.6539L18.7925 20.6253V20.6246ZM12.8333 25.5829H13.8341L15.5044 23.5542C15.7197 23.2936 15.7197 22.9146 15.5044 22.6539L13.8334 20.6253H12.8326C12.0513 20.6253 11.4159 21.2606 11.4159 22.0419V24.1669C11.4159 24.9482 12.0513 25.5836 12.8326 25.5836L12.8333 25.5829ZM25.4218 22.6532L24.3883 21.3988C23.9838 20.9065 23.3853 20.6246 22.7485 20.6246H20.6285L21.5571 21.7529C22.201 22.5356 22.201 23.6718 21.5571 24.4545L20.6285 25.5829H22.7492C23.386 25.5829 23.9846 25.301 24.389 24.8087L25.4218 23.5542C25.6371 23.2936 25.6371 22.9139 25.4218 22.6532ZM16.0364 13.3592C15.7594 13.6361 15.7594 14.0845 16.0364 14.3615C16.7822 15.1399 18.1281 15.1399 18.8739 14.3615L22.0331 11.2094C22.3108 10.9331 22.3108 10.4848 22.0345 10.2071C21.7576 9.92943 21.3099 9.93014 21.0329 10.2064L17.8731 13.3599C17.6499 13.5837 17.2603 13.5823 17.0379 13.3599C16.761 13.0829 16.3133 13.0829 16.0364 13.3592Z" fill="white"/>
</g>
<defs>
<linearGradient id="paint0_linear_3882_1810" x1="30.5" y1="32" x2="7" y2="6.5" gradientUnits="userSpaceOnUse">
<stop stop-color="#33CBBF"/>
<stop offset="1" stop-color="#31C58C"/>
</linearGradient>
<clipPath id="clip0_3882_1810">
<rect width="17" height="17" fill="white" transform="translate(10 10)"/>
</clipPath>
</defs>
</svg>
