<svg width="37" height="37" viewBox="0 0 37 37" fill="none" xmlns="http://www.w3.org/2000/svg">
<path d="M0 18.5C0 8.28273 8.28273 0 18.5 0C28.7173 0 37 8.28273 37 18.5C37 28.7173 28.7173 37 18.5 37C8.28273 37 0 28.7173 0 18.5Z" fill="url(#paint0_linear_3882_1784)"/>
<g clip-path="url(#clip0_3882_1784)">
<path d="M17.0833 17.5833C16.5197 17.5833 15.9792 17.8072 15.5807 18.2057C15.1822 18.6043 14.9583 19.1448 14.9583 19.7083C14.9583 20.2719 15.1822 20.8124 15.5807 21.2109C15.9792 21.6095 16.5197 21.8333 17.0833 21.8333H19.9167C20.4803 21.8333 21.0208 21.6095 21.4193 21.2109C21.8178 20.8124 22.0417 20.2719 22.0417 19.7083C22.0417 19.1448 21.8178 18.6043 21.4193 18.2057C21.0208 17.8072 20.4803 17.5833 19.9167 17.5833H17.0833ZM20.625 19.7083C20.625 19.8962 20.5504 20.0764 20.4175 20.2092C20.2847 20.3421 20.1045 20.4167 19.9167 20.4167H17.0833C16.8955 20.4167 16.7153 20.3421 16.5825 20.2092C16.4496 20.0764 16.375 19.8962 16.375 19.7083C16.375 19.5205 16.4496 19.3403 16.5825 19.2075C16.7153 19.0746 16.8955 19 17.0833 19H19.9167C20.1045 19 20.2847 19.0746 20.4175 19.2075C20.5504 19.3403 20.625 19.5205 20.625 19.7083ZM22.0417 23.9583C22.0417 24.1462 21.967 24.3264 21.8342 24.4592C21.7014 24.5921 21.5212 24.6667 21.3333 24.6667H15.6667C15.4788 24.6667 15.2986 24.5921 15.1658 24.4592C15.033 24.3264 14.9583 24.1462 14.9583 23.9583C14.9583 23.7705 15.033 23.5903 15.1658 23.4575C15.2986 23.3246 15.4788 23.25 15.6667 23.25H21.3333C21.5212 23.25 21.7014 23.3246 21.8342 23.4575C21.967 23.5903 22.0417 23.7705 22.0417 23.9583ZM23.838 12.7107L22.6636 11.5377C22.3355 11.2078 21.9453 10.9462 21.5155 10.7681C21.0857 10.59 20.6249 10.4989 20.1596 10.5H15.6667C14.7277 10.5011 13.8275 10.8746 13.1636 11.5386C12.4996 12.2025 12.1261 13.1027 12.125 14.0417V23.9583C12.1261 24.8973 12.4996 25.7975 13.1636 26.4614C13.8275 27.1254 14.7277 27.4989 15.6667 27.5H21.3333C22.2723 27.4989 23.1725 27.1254 23.8364 26.4614C24.5004 25.7975 24.8739 24.8973 24.875 23.9583V15.2154C24.8763 14.7501 24.7854 14.2891 24.6074 13.8592C24.4294 13.4293 24.1679 13.0389 23.838 12.7107ZM22.8364 13.7123C22.9361 13.8132 23.0258 13.9235 23.1042 14.0417H21.3333V12.2708C21.4517 12.3484 21.5618 12.4379 21.662 12.5379L22.8364 13.7123ZM23.4583 23.9583C23.4583 24.5219 23.2345 25.0624 22.8359 25.4609C22.4374 25.8595 21.8969 26.0833 21.3333 26.0833H15.6667C15.1031 26.0833 14.5626 25.8595 14.1641 25.4609C13.7656 25.0624 13.5417 24.5219 13.5417 23.9583V14.0417C13.5417 13.4781 13.7656 12.9376 14.1641 12.5391C14.5626 12.1406 15.1031 11.9167 15.6667 11.9167H19.9167V14.0417C19.9167 14.4174 20.0659 14.7777 20.3316 15.0434C20.5973 15.3091 20.9576 15.4583 21.3333 15.4583H23.4583V23.9583Z" fill="white"/>
</g>
<defs>
<linearGradient id="paint0_linear_3882_1784" x1="30.5" y1="32" x2="7" y2="6.5" gradientUnits="userSpaceOnUse">
<stop stop-color="#C833CB"/>
<stop offset="1" stop-color="#6231C5"/>
</linearGradient>
<clipPath id="clip0_3882_1784">
<rect width="17" height="17" fill="white" transform="translate(10 10)"/>
</clipPath>
</defs>
</svg>
