<svg width="37" height="37" viewBox="0 0 37 37" fill="none" xmlns="http://www.w3.org/2000/svg">
<path d="M0 18.5C0 8.28273 8.28273 0 18.5 0C28.7173 0 37 8.28273 37 18.5C37 28.7173 28.7173 37 18.5 37C8.28273 37 0 28.7173 0 18.5Z" fill="url(#paint0_linear_3731_2142)"/>
<path d="M19.7255 12.4864L20.9721 14.9797C21.1421 15.3268 21.5955 15.6597 21.978 15.7235L24.2376 16.0989C25.6826 16.3397 26.0226 17.388 24.9813 18.4222L23.2246 20.1789C22.9271 20.4764 22.7642 21.0501 22.8563 21.461L23.3592 23.6355C23.7559 25.3568 22.8421 26.0226 21.3192 25.123L19.2013 23.8693C18.8188 23.6426 18.1884 23.6426 17.7988 23.8693L15.6809 25.123C14.1651 26.0226 13.2442 25.3497 13.6409 23.6355L14.1438 21.461C14.2359 21.0501 14.073 20.4764 13.7755 20.1789L12.0188 18.4222C10.9846 17.388 11.3176 16.3397 12.7626 16.0989L15.0221 15.7235C15.3976 15.6597 15.8509 15.3268 16.0209 14.9797L17.2676 12.4864C17.9476 11.1335 19.0526 11.1335 19.7255 12.4864Z" stroke="white" stroke-width="1.5" stroke-linecap="round" stroke-linejoin="round"/>
<defs>
<linearGradient id="paint0_linear_3731_2142" x1="30.5" y1="32" x2="7" y2="6.5" gradientUnits="userSpaceOnUse">
<stop stop-color="#F17F40"/>
<stop offset="1" stop-color="#E8516B"/>
</linearGradient>
</defs>
</svg>
