<svg width="53" height="53" viewBox="0 0 53 53" fill="none" xmlns="http://www.w3.org/2000/svg">
<rect width="53" height="53" rx="15" fill="url(#paint0_linear_3821_2132)"/>
<g clip-path="url(#clip0_3821_2132)">
<path d="M29.375 27.4583C28.846 27.4583 28.4167 27.8867 28.4167 28.4167V30.3333H16.9167V19.7917C16.9167 18.2066 18.2066 16.9167 19.7917 16.9167H25.5417C26.0707 16.9167 26.5 16.4883 26.5 15.9583C26.5 15.4284 26.0707 15 25.5417 15H19.7917C17.1495 15 15 17.1495 15 19.7917V33.2083C15 35.8505 17.1495 38 19.7917 38H25.5417C28.1838 38 30.3333 35.8505 30.3333 33.2083V28.4167C30.3333 27.8867 29.904 27.4583 29.375 27.4583ZM25.5417 36.0833H19.7917C18.2066 36.0833 16.9167 34.7934 16.9167 33.2083V32.25H28.4167V33.2083C28.4167 34.7934 27.1268 36.0833 25.5417 36.0833ZM35.125 15L31.2917 15.0019C29.7066 15.0019 28.4167 16.2918 28.4167 17.8769V24.154C28.4167 24.6753 28.7042 25.1468 29.167 25.3864C29.628 25.6241 30.18 25.5877 30.6055 25.2858C30.6371 25.2637 32.4445 23.626 32.4445 23.626H35.124C36.7091 23.626 37.999 22.336 37.999 20.751V17.875C37.999 16.2899 36.7101 15 35.125 15ZM36.0833 20.75C36.0833 21.279 35.653 21.7083 35.125 21.7083H32.0746C31.836 21.7083 31.607 21.7975 31.4306 21.9575L30.3333 22.9542V17.8769C30.3333 17.3479 30.7636 16.9167 31.2917 16.9167H35.125C35.654 16.9167 36.0833 17.346 36.0833 17.875V20.75ZM22.6667 23.625C21.3432 23.625 20.2708 22.5526 20.2708 21.2292C20.2708 19.9057 21.3432 18.8333 22.6667 18.8333C23.9901 18.8333 25.0625 19.9057 25.0625 21.2292C25.0625 22.5526 23.9901 23.625 22.6667 23.625ZM22.6667 24.5833C24.3543 24.5833 25.8704 25.603 26.4396 27.122C26.6255 27.6174 26.3745 28.1694 25.879 28.3553C25.396 28.5393 24.8306 28.2959 24.6447 27.7937C24.3543 27.0194 23.5598 26.499 22.6676 26.499C21.7754 26.499 20.98 27.0194 20.6906 27.7937C20.5047 28.2911 19.9527 28.5403 19.4563 28.3553C18.9608 28.1694 18.7097 27.6165 18.8956 27.122C19.4649 25.603 20.981 24.5833 22.6686 24.5833H22.6667ZM24.5833 34.1667C24.5833 34.6966 24.154 35.125 23.625 35.125H21.7083C21.1793 35.125 20.75 34.6966 20.75 34.1667C20.75 33.6367 21.1793 33.2083 21.7083 33.2083H23.625C24.154 33.2083 24.5833 33.6367 24.5833 34.1667Z" fill="white"/>
</g>
<defs>
<linearGradient id="paint0_linear_3821_2132" x1="43.6892" y1="45.8378" x2="10.027" y2="9.31081" gradientUnits="userSpaceOnUse">
<stop stop-color="#874DE1"/>
<stop offset="1" stop-color="#545EE8"/>
</linearGradient>
<clipPath id="clip0_3821_2132">
<rect width="23" height="23" fill="white" transform="translate(15 15)"/>
</clipPath>
</defs>
</svg>
