<svg width="37" height="37" viewBox="0 0 37 37" fill="none" xmlns="http://www.w3.org/2000/svg">
<path d="M0 18.5C0 8.28273 8.28273 0 18.5 0C28.7173 0 37 8.28273 37 18.5C37 28.7173 28.7173 37 18.5 37C8.28273 37 0 28.7173 0 18.5Z" fill="url(#paint0_linear_3745_3347)"/>
<path d="M15.6667 11.417V13.542" stroke="white" stroke-width="1.5" stroke-miterlimit="10" stroke-linecap="round" stroke-linejoin="round"/>
<path d="M21.3333 11.417V13.542" stroke="white" stroke-width="1.5" stroke-miterlimit="10" stroke-linecap="round" stroke-linejoin="round"/>
<path d="M21.3333 12.4795C23.6921 12.607 24.875 13.5066 24.875 16.8357V21.2132C24.875 24.1316 24.1667 25.5907 20.625 25.5907H16.375C12.8333 25.5907 12.125 24.1316 12.125 21.2132V16.8357C12.125 13.5066 13.3079 12.6141 15.6667 12.4795H21.3333Z" stroke="white" stroke-width="1.5" stroke-miterlimit="10" stroke-linecap="round" stroke-linejoin="round"/>
<path d="M24.6978 22.4668H12.302" stroke="white" stroke-width="1.5" stroke-miterlimit="10" stroke-linecap="round" stroke-linejoin="round"/>
<path d="M18.5001 15.8438C17.6288 15.8438 16.8922 16.3183 16.8922 17.2392C16.8922 17.6783 17.0976 18.0112 17.4092 18.2237C16.9772 18.4787 16.7292 18.8896 16.7292 19.3712C16.7292 20.2496 17.4022 20.795 18.5001 20.795C19.5909 20.795 20.2709 20.2496 20.2709 19.3712C20.2709 18.8896 20.023 18.4717 19.5838 18.2237C19.9026 18.0042 20.1009 17.6783 20.1009 17.2392C20.1009 16.3183 19.3713 15.8438 18.5001 15.8438ZM18.5001 17.8554C18.1317 17.8554 17.8626 17.6358 17.8626 17.2888C17.8626 16.9346 18.1317 16.7292 18.5001 16.7292C18.8684 16.7292 19.1376 16.9346 19.1376 17.2888C19.1376 17.6358 18.8684 17.8554 18.5001 17.8554ZM18.5001 19.9167C18.0326 19.9167 17.6926 19.6829 17.6926 19.2579C17.6926 18.8329 18.0326 18.6062 18.5001 18.6062C18.9676 18.6062 19.3076 18.84 19.3076 19.2579C19.3076 19.6829 18.9676 19.9167 18.5001 19.9167Z" fill="white"/>
<defs>
<linearGradient id="paint0_linear_3745_3347" x1="30.5" y1="32" x2="7" y2="6.5" gradientUnits="userSpaceOnUse">
<stop stop-color="#33CBBF"/>
<stop offset="1" stop-color="#31C58C"/>
</linearGradient>
</defs>
</svg>
