<svg width="37" height="37" viewBox="0 0 37 37" fill="none" xmlns="http://www.w3.org/2000/svg">
<path d="M0 18.5C0 8.28273 8.28273 0 18.5 0C28.7173 0 37 8.28273 37 18.5C37 28.7173 28.7173 37 18.5 37C8.28273 37 0 28.7173 0 18.5Z" fill="url(#paint0_linear_3745_2439)"/>
<g clip-path="url(#clip0_3745_2439)">
<path d="M23.4583 11.4167H22.75V10.7083C22.75 10.3173 22.4327 10 22.0417 10C21.6507 10 21.3333 10.3173 21.3333 10.7083V11.4167H15.6667V10.7083C15.6667 10.3173 15.3493 10 14.9583 10C14.5673 10 14.25 10.3173 14.25 10.7083V11.4167H13.5417C11.5888 11.4167 10 13.0055 10 14.9583V23.4583C10 25.4112 11.5888 27 13.5417 27H23.4583C25.4112 27 27 25.4112 27 23.4583V14.9583C27 13.0055 25.4112 11.4167 23.4583 11.4167ZM13.5417 12.8333H23.4583C24.6299 12.8333 25.5833 13.7867 25.5833 14.9583V15.6667H11.4167V14.9583C11.4167 13.7867 12.3701 12.8333 13.5417 12.8333ZM23.4583 25.5833H13.5417C12.3701 25.5833 11.4167 24.6299 11.4167 23.4583V17.0833H25.5833V23.4583C25.5833 24.6299 24.6299 25.5833 23.4583 25.5833ZM21.6145 20.8743C21.6145 21.1428 21.4275 21.3687 21.2136 21.4878L20.1058 22.104L20.5974 23.4449C20.6923 23.7048 20.6066 23.996 20.3856 24.1624C20.1596 24.3324 19.848 24.3303 19.6241 24.1575L18.522 23.3053L17.4198 24.1575C17.196 24.3303 16.8843 24.3324 16.6583 24.1624C16.4373 23.996 16.3516 23.7048 16.4465 23.4449L16.9381 22.104L15.8303 21.4878C15.6164 21.3687 15.4294 21.1428 15.4294 20.8743C15.4294 20.647 15.627 20.3955 15.9472 20.3955H17.5388L17.961 18.7784C18.0275 18.522 18.2577 18.3435 18.522 18.3385C18.7862 18.3435 19.0164 18.522 19.083 18.7784L19.5051 20.3955H21.0968C21.4169 20.3955 21.6145 20.6462 21.6145 20.8743Z" fill="white"/>
</g>
<defs>
<linearGradient id="paint0_linear_3745_2439" x1="30.5" y1="32" x2="7" y2="6.5" gradientUnits="userSpaceOnUse">
<stop stop-color="#874DE1"/>
<stop offset="1" stop-color="#545EE8"/>
</linearGradient>
<clipPath id="clip0_3745_2439">
<rect width="17" height="17" fill="white" transform="translate(10 10)"/>
</clipPath>
</defs>
</svg>
