<svg width="40" height="40" viewBox="0 0 40 40" fill="none" xmlns="http://www.w3.org/2000/svg">
<circle opacity="0.1" cx="20" cy="20" r="20" fill="#265DF5"/>
<g clip-path="url(#clip0_2299_16346)">
<path d="M25.8331 13.3333H25.7489C25.3614 11.4342 23.6789 10 21.6664 10H14.1664C11.8689 10 9.99978 11.8692 9.99978 14.1667V24.8792C9.95478 26.265 11.6531 27.175 12.7823 26.3683L15.2548 24.72C15.8298 26.3342 17.3573 27.5 19.1664 27.5H23.9139L27.2164 29.7017C28.3464 30.5075 30.0439 29.5983 29.9998 28.2125V17.5C29.9998 15.2025 28.1306 13.3333 25.8331 13.3333ZM11.8573 24.9817C11.8156 25.0475 11.6339 24.9492 11.6664 24.8792V14.1667C11.6664 12.7883 12.7881 11.6667 14.1664 11.6667H21.6664C23.0448 11.6667 24.1664 12.7883 24.1664 14.1667V20C24.1664 21.3783 23.0448 22.5 21.6664 22.5H15.8331C15.6681 22.4992 15.5139 22.565 15.3706 22.64L11.8573 24.9817ZM28.3331 28.2125C28.3656 28.2842 28.1806 28.3817 28.1414 28.315L24.6289 25.9733C24.4923 25.8825 24.3314 25.8333 24.1664 25.8333H19.1664C18.0814 25.8333 17.1648 25.1342 16.8198 24.1667H21.6664C23.9639 24.1667 25.8331 22.2975 25.8331 20V15C27.2114 15 28.3331 16.1217 28.3331 17.5V28.2125ZM16.4164 20H14.9998C14.5398 20 14.1664 19.6267 14.1664 19.1667V15C14.1664 14.54 14.5398 14.1667 14.9998 14.1667H16.4164C16.7848 14.1667 17.0831 14.465 17.0831 14.8333C17.0831 15.2017 16.7848 15.5 16.4164 15.5H15.4989V16.4175H16.4164C16.7848 16.4175 17.0831 16.7158 17.0831 17.0842C17.0831 17.4525 16.7848 17.7508 16.4164 17.7508H15.4989V18.6683H16.4164C16.7848 18.6683 17.0831 18.9667 17.0831 19.335C17.0831 19.7033 16.7848 20.0017 16.4164 20.0017V20ZM17.9164 19.3775V14.9283C17.9164 14.5075 18.2573 14.1667 18.6781 14.1667C18.9731 14.1667 19.2406 14.3367 19.3673 14.6033L20.5614 17.1292V14.7892C20.5614 14.4458 20.8398 14.1667 21.1839 14.1667C21.5281 14.1667 21.8064 14.445 21.8064 14.7892V19.2383C21.8064 19.6592 21.4656 20 21.0448 20C20.7506 20 20.4823 19.83 20.3564 19.5642L19.1631 17.0433V19.3775C19.1631 19.7208 18.8848 20 18.5406 20C18.1964 20 17.9181 19.7217 17.9181 19.3775H17.9164Z" fill="#265DF5"/>
</g>
<defs>
<clipPath id="clip0_2299_16346">
<rect width="20" height="20" fill="white" transform="translate(10 10)"/>
</clipPath>
</defs>
</svg>
