<svg width="23" height="22" viewBox="0 0 23 22" fill="none" xmlns="http://www.w3.org/2000/svg">
<rect width="22.7097" height="22" rx="4" fill="#455CDC"/>
<path fill-rule="evenodd" clip-rule="evenodd" d="M7.09686 9.93531V10.143C7.09686 11.157 7.44198 12.1409 8.07545 12.9327L11.3549 17.0321L14.6344 12.9327C15.2679 12.1409 15.613 11.157 15.613 10.143V9.93531C15.613 7.58365 13.7066 5.67725 11.3549 5.67725C9.00326 5.67725 7.09686 7.58365 7.09686 9.93531ZM11.3549 11.3547C12.1388 11.3547 12.7743 10.7192 12.7743 9.93531C12.7743 9.15142 12.1388 8.51596 11.3549 8.51596C10.571 8.51596 9.93557 9.15142 9.93557 9.93531C9.93557 10.7192 10.571 11.3547 11.3549 11.3547Z" fill="white"/>
</svg>
