<svg width="14" height="12" viewBox="0 0 14 12" fill="none" xmlns="http://www.w3.org/2000/svg">
<path fill-rule="evenodd" clip-rule="evenodd" d="M14 4.87015L8.589 7.24015C8.5274 7.26692 8.46347 7.27985 8.4 7.27985V7.85169C8.4 8.10692 8.19093 8.31323 7.93333 8.31323H6.06667C5.80907 8.31323 5.6 8.10692 5.6 7.85169V7.278C5.53653 7.278 5.47213 7.26508 5.41053 7.23831L0 4.87015V10.6154C0 10.9828 0.147467 11.3349 0.4102 11.5943C0.672467 11.8542 1.02853 12 1.4 12C3.8052 12 10.1948 12 12.6 12C12.9715 12 13.3275 11.8542 13.5898 11.5943C13.8525 11.3349 14 10.9828 14 10.6154V4.87015ZM7.46667 6V7.39015H6.53333V6H7.46667ZM2.8 1.84615H1.4C1.02853 1.84615 0.672467 1.992 0.4102 2.25185C0.147467 2.51123 0 2.86338 0 3.23077V3.86077L5.6 6.312V5.53846C5.6 5.28369 5.80907 5.07692 6.06667 5.07692H7.93333C8.19093 5.07692 8.4 5.28369 8.4 5.53846V6.31338L14 3.86031V3.23077C14 2.86338 13.8525 2.51123 13.5898 2.25185C13.3275 1.992 12.9715 1.84615 12.6 1.84615H11.2V1.38462C11.2 0.619846 10.5733 0 9.8 0H4.2C3.42673 0 2.8 0.619846 2.8 1.38462V1.84615ZM10.2667 1.84615H3.73333V1.38462C3.73333 1.12985 3.9424 0.923077 4.2 0.923077H9.8C10.0576 0.923077 10.2667 1.12985 10.2667 1.38462V1.84615Z" fill="#2F65CA"/>
</svg>
