<svg width="39" height="37" viewBox="0 0 39 37" fill="none" xmlns="http://www.w3.org/2000/svg">
<path d="M0 18.5C0 8.28273 8.28273 0 18.5 0H20.5C30.7173 0 39 8.28273 39 18.5C39 28.7173 30.7173 37 20.5 37H18.5C8.28273 37 0 28.7173 0 18.5Z" fill="url(#paint0_linear_3774_1744)"/>
<path d="M18.5 22.75C18.1083 22.75 17.7917 22.4334 17.7917 22.0417C17.7917 21.65 18.1083 21.3333 18.5 21.3333H20.625C21.0167 21.3333 21.3333 21.65 21.3333 22.0417C21.3333 22.4334 21.0167 22.75 20.625 22.75H18.5ZM24.1667 19.9167V23.4583C24.1667 25.4112 22.5779 27 20.625 27H13.5417C11.5888 27 10 25.4112 10 23.4583V13.5417C10 11.5888 11.5888 10 13.5417 10H19.9167C20.3084 10 20.625 10.3173 20.625 10.7083C20.625 11.0993 20.3084 11.4167 19.9167 11.4167H13.5417C12.3701 11.4167 11.4167 12.3701 11.4167 13.5417V23.4583C11.4167 24.6299 12.3701 25.5833 13.5417 25.5833H20.625C21.7966 25.5833 22.75 24.6299 22.75 23.4583V19.9167C22.75 19.525 23.0666 19.2083 23.4583 19.2083C23.85 19.2083 24.1667 19.525 24.1667 19.9167ZM16.4933 18.2641L15.2983 19.4591C14.993 19.7644 14.5935 19.9181 14.1926 19.9181C13.8151 19.9181 13.4375 19.7814 13.1365 19.5058L12.6626 19.0957C12.3673 18.8393 12.3354 18.3916 12.5911 18.0962C12.8482 17.7995 13.2952 17.7697 13.5905 18.0247L14.0786 18.4483C14.1515 18.5142 14.2401 18.5135 14.296 18.4575L15.491 17.2625C15.768 16.9856 16.2156 16.9856 16.4926 17.2625C16.7695 17.5395 16.7703 17.9872 16.4933 18.2641ZM16.4933 14.7508L15.2983 15.9457C14.993 16.251 14.5935 16.4047 14.1926 16.4047C13.8151 16.4047 13.4375 16.268 13.1365 15.9925L12.6626 15.5824C12.3673 15.326 12.3354 14.8783 12.5911 14.5829C12.8482 14.2868 13.2952 14.2564 13.5905 14.5114L14.0786 14.935C14.1515 15.0015 14.2401 15.0001 14.296 14.9442L15.491 13.7492C15.768 13.4723 16.2156 13.4723 16.4926 13.7492C16.7695 14.0262 16.7703 14.4738 16.4933 14.7508ZM16.4933 20.8042C16.7703 21.0812 16.7703 21.5288 16.4933 21.8058L15.2983 23.0007C14.993 23.306 14.5935 23.4598 14.1926 23.4598C13.8151 23.4598 13.4375 23.323 13.1365 23.0475L12.6626 22.6374C12.3673 22.381 12.3354 21.934 12.5911 21.6379C12.8482 21.3425 13.2952 21.3107 13.5905 21.5664L14.0786 21.99C14.1515 22.0558 14.2401 22.0551 14.296 21.9992L15.491 20.8042C15.768 20.5272 16.2163 20.5272 16.4933 20.8042Z" fill="white"/>
<path d="M25 10C24.2089 10 23.4355 10.2346 22.7777 10.6741C22.1199 11.1136 21.6072 11.7384 21.3045 12.4693C21.0017 13.2002 20.9225 14.0044 21.0769 14.7804C21.2312 15.5563 21.6122 16.269 22.1716 16.8284C22.731 17.3878 23.4437 17.7688 24.2196 17.9231C24.9956 18.0775 25.7998 17.9983 26.5307 17.6955C27.2616 17.3928 27.8864 16.8801 28.3259 16.2223C28.7654 15.5645 29 14.7911 29 14C28.9989 12.9395 28.5771 11.9227 27.8272 11.1728C27.0773 10.4229 26.0605 10.0011 25 10ZM25 17C24.4067 17 23.8266 16.8241 23.3333 16.4944C22.8399 16.1648 22.4554 15.6962 22.2284 15.1481C22.0013 14.5999 21.9419 13.9967 22.0576 13.4147C22.1734 12.8328 22.4591 12.2982 22.8787 11.8787C23.2982 11.4591 23.8328 11.1734 24.4147 11.0576C24.9967 10.9419 25.5999 11.0013 26.1481 11.2284C26.6962 11.4554 27.1648 11.8399 27.4944 12.3333C27.8241 12.8266 28 13.4067 28 14C27.9991 14.7954 27.6828 15.5579 27.1203 16.1203C26.5579 16.6828 25.7954 16.9991 25 17Z" fill="white"/>
<path d="M24.5 13.685L23.7 14.185C23.6443 14.2199 23.5961 14.2653 23.558 14.3188C23.5199 14.3724 23.4927 14.4328 23.478 14.4969C23.4633 14.5609 23.4614 14.6272 23.4723 14.6919C23.4832 14.7567 23.5068 14.8187 23.5417 14.8743C23.5765 14.93 23.622 14.9783 23.6755 15.0164C23.729 15.0544 23.7895 15.0816 23.8535 15.0963C23.9175 15.111 23.9838 15.113 24.0486 15.102C24.1134 15.0911 24.1753 15.0675 24.231 15.0327L25.1873 14.4327C25.2833 14.3725 25.3623 14.289 25.417 14.1898C25.4717 14.0907 25.5003 13.9792 25.5 13.866V12.5907C25.5 12.4581 25.4473 12.3309 25.3536 12.2371C25.2598 12.1433 25.1326 12.0907 25 12.0907C24.8674 12.0907 24.7402 12.1433 24.6464 12.2371C24.5527 12.3309 24.5 12.4581 24.5 12.5907V13.685Z" fill="white"/>
<defs>
<linearGradient id="paint0_linear_3774_1744" x1="32.1486" y1="32" x2="8.78133" y2="5.27338" gradientUnits="userSpaceOnUse">
<stop stop-color="#874DE1"/>
<stop offset="1" stop-color="#545EE8"/>
</linearGradient>
</defs>
</svg>
