<svg width="53" height="53" viewBox="0 0 53 53" fill="none" xmlns="http://www.w3.org/2000/svg">
<rect width="53" height="53" rx="15" fill="url(#paint0_linear_3821_2000)"/>
<g clip-path="url(#clip0_3821_2000)">
<path d="M21.7083 20.75C21.7083 20.221 22.1377 19.7917 22.6667 19.7917H30.3333C30.8633 19.7917 31.2917 20.221 31.2917 20.75C31.2917 21.279 30.8633 21.7083 30.3333 21.7083H22.6667C22.1377 21.7083 21.7083 21.279 21.7083 20.75ZM22.6667 25.5417H28.4167C28.9466 25.5417 29.375 25.1123 29.375 24.5833C29.375 24.0543 28.9466 23.625 28.4167 23.625H22.6667C22.1377 23.625 21.7083 24.0543 21.7083 24.5833C21.7083 25.1123 22.1377 25.5417 22.6667 25.5417ZM38 27.1785V33.2083C38 35.8505 35.8505 38 33.2083 38H19.7917C17.1495 38 15 35.8505 15 33.2083V27.1785C15 25.879 15.5386 24.6169 16.4768 23.718L17.875 22.3782V18.8333C17.875 16.7192 19.5942 15 21.7083 15H31.2917C33.4058 15 35.125 16.7192 35.125 18.8333V22.3782L36.5232 23.717C37.4614 24.6159 38 25.8771 38 27.1775V27.1785ZM19.7917 18.8333V26.7329L24.4664 31.4086C25.5532 32.4944 27.4468 32.4944 28.5326 31.4086L33.2083 26.7329V18.8333C33.2083 17.7763 32.3487 16.9167 31.2917 16.9167H21.7083C20.6513 16.9167 19.7917 17.7763 19.7917 18.8333ZM36.0833 27.1785C36.0833 26.9916 36.0642 26.8057 36.0277 26.6236L29.8877 32.7637C28.983 33.6683 27.7803 34.1667 26.5 34.1667C25.2197 34.1667 24.017 33.6683 23.1113 32.7637L16.9722 26.6227C16.9358 26.8048 16.9167 26.9907 16.9167 27.1775V33.2074C16.9167 34.7925 18.2066 36.0824 19.7917 36.0824H33.2083C34.7934 36.0824 36.0833 34.7925 36.0833 33.2074V27.1775V27.1785Z" fill="white"/>
</g>
<defs>
<linearGradient id="paint0_linear_3821_2000" x1="43.6892" y1="45.8378" x2="10.027" y2="9.31081" gradientUnits="userSpaceOnUse">
<stop stop-color="#F17F40"/>
<stop offset="1" stop-color="#E8516B"/>
</linearGradient>
<clipPath id="clip0_3821_2000">
<rect width="23" height="23" fill="white" transform="translate(15 15)"/>
</clipPath>
</defs>
</svg>
