<svg width="37" height="37" viewBox="0 0 37 37" fill="none" xmlns="http://www.w3.org/2000/svg">
<path d="M0 18.5C0 8.28273 8.28273 0 18.5 0C28.7173 0 37 8.28273 37 18.5C37 28.7173 28.7173 37 18.5 37C8.28273 37 0 28.7173 0 18.5Z" fill="url(#paint0_linear_3745_4024)"/>
<g clip-path="url(#clip0_3745_4024)">
<path d="M17.0833 11.4167C17.0833 10.634 17.7172 10 18.4999 10C19.2826 10 19.9166 10.634 19.9166 11.4167C19.9166 12.1994 19.2826 12.8333 18.4999 12.8333C17.7172 12.8333 17.0833 12.1994 17.0833 11.4167ZM16.6243 16.3608C17.0117 16.4331 17.3815 16.1901 17.4601 15.8076C17.56 15.3153 17.9977 14.9583 18.5006 14.9583C19.0036 14.9583 19.4413 15.3153 19.5412 15.8076C19.6099 16.1434 19.9053 16.375 20.2346 16.375C20.2807 16.375 20.3289 16.37 20.3763 16.3608C20.7595 16.2829 21.0074 15.9089 20.9295 15.525C20.6958 14.3754 19.6744 13.541 18.4999 13.541C17.3255 13.541 16.3041 14.3754 16.0704 15.525C15.9931 15.9089 16.2404 16.2822 16.6236 16.3608H16.6243ZM24.5208 14.25C25.3035 14.25 25.9374 13.616 25.9374 12.8333C25.9374 12.0506 25.3035 11.4167 24.5208 11.4167C23.7381 11.4167 23.1041 12.0506 23.1041 12.8333C23.1041 13.616 23.7381 14.25 24.5208 14.25ZM13.5196 17.2243C13.5884 17.56 13.8837 17.7917 14.2131 17.7917C14.2591 17.7917 14.3073 17.7867 14.3548 17.7775C14.738 17.6996 14.9859 17.3256 14.908 16.9417C14.6742 15.792 13.6528 14.9576 12.4784 14.9576C11.304 14.9576 10.2833 15.7927 10.0495 16.9424C9.97231 17.3263 10.2195 17.6996 10.6027 17.7782C10.9902 17.8519 11.3599 17.6075 11.4386 17.225C11.5384 16.7327 11.9762 16.3757 12.4791 16.3757C12.982 16.3757 13.4198 16.732 13.5196 17.2243ZM12.4791 14.25C13.2618 14.25 13.8958 13.616 13.8958 12.8333C13.8958 12.0506 13.2618 11.4167 12.4791 11.4167C11.6964 11.4167 11.0624 12.0506 11.0624 12.8333C11.0624 13.616 11.6964 14.25 12.4791 14.25ZM26.9503 16.9424C26.7166 15.7927 25.6952 14.9583 24.5208 14.9583C23.3464 14.9583 22.3249 15.7927 22.0912 16.9424C22.014 17.3263 22.2612 17.6996 22.6444 17.7782C23.0318 17.8519 23.4016 17.6075 23.4802 17.225C23.5801 16.7327 24.0178 16.3757 24.5208 16.3757C25.0237 16.3757 25.4614 16.7327 25.5613 17.225C25.63 17.5607 25.9254 17.7924 26.2548 17.7924C26.3008 17.7924 26.349 17.7874 26.3964 17.7782C26.7796 17.7003 27.0283 17.3263 26.9503 16.9424ZM23.9987 23.141L20.6299 21.878V18.5765C20.6299 17.5027 19.8677 16.5684 18.8569 16.404C18.2343 16.3035 17.6046 16.4763 17.1293 16.8815C16.6533 17.2859 16.3799 17.876 16.3799 18.5007V23.8578L15.6609 23.2855C15.656 23.2812 15.6489 23.2805 15.6439 23.277C14.7861 22.5318 13.4842 22.5871 12.7029 23.4243C11.9025 24.28 11.9479 25.6272 12.795 26.4206L13.1903 26.8017C13.322 26.9292 13.4984 27 13.6819 27C14.3194 27 14.6324 26.2244 14.1734 25.7817L13.7711 25.3935C13.4856 25.1257 13.4708 24.676 13.7385 24.3905C14.0041 24.1057 14.4525 24.0923 14.7373 24.3565C14.7444 24.3629 14.7536 24.3643 14.7606 24.3707C14.7684 24.377 15.9924 25.3581 15.9924 25.3581C16.3296 25.6265 16.7801 25.6768 17.1683 25.4905C17.5564 25.3028 17.798 24.9189 17.798 24.4882V18.5C17.798 18.2917 17.8894 18.0948 18.048 17.9595C18.2095 17.8235 18.4164 17.7655 18.6303 17.8016C18.9582 17.8547 19.2146 18.1947 19.2146 18.5758V22.3682C19.2146 22.6636 19.3981 22.9278 19.6736 23.0319L23.5022 24.467C24.2884 24.7617 24.8282 25.4934 24.8771 26.3328C24.899 26.7089 25.2114 26.9993 25.5833 26.9993C25.5974 26.9993 25.6109 26.9993 25.6258 26.9979C26.0161 26.9752 26.3143 26.6402 26.2909 26.2492C26.2094 24.8516 25.3091 23.6312 23.9994 23.1396L23.9987 23.141Z" fill="white"/>
</g>
<defs>
<linearGradient id="paint0_linear_3745_4024" x1="30.5" y1="32" x2="7" y2="6.5" gradientUnits="userSpaceOnUse">
<stop stop-color="#874DE1"/>
<stop offset="1" stop-color="#545EE8"/>
</linearGradient>
<clipPath id="clip0_3745_4024">
<rect width="17" height="17" fill="white" transform="translate(10 10)"/>
</clipPath>
</defs>
</svg>
