<svg width="53" height="53" viewBox="0 0 53 53" fill="none" xmlns="http://www.w3.org/2000/svg">
<rect width="53" height="53" rx="15" fill="url(#paint0_linear_3816_1872)"/>
<g clip-path="url(#clip0_3816_1872)">
<path d="M26.5 26.5C27.6372 26.5 28.7489 26.1628 29.6945 25.531C30.6401 24.8991 31.3771 24.0011 31.8123 22.9504C32.2475 21.8998 32.3614 20.7436 32.1395 19.6282C31.9177 18.5128 31.37 17.4883 30.5659 16.6841C29.7617 15.88 28.7372 15.3324 27.6218 15.1105C26.5064 14.8886 25.3502 15.0025 24.2996 15.4377C23.2489 15.8729 22.3509 16.6099 21.719 17.5555C21.0872 18.5011 20.75 19.6128 20.75 20.75C20.7515 22.2745 21.3578 23.7362 22.4358 24.8142C23.5138 25.8922 24.9755 26.4985 26.5 26.5ZM26.5 16.9167C27.2582 16.9167 27.9993 17.1415 28.6297 17.5627C29.2601 17.9839 29.7514 18.5826 30.0415 19.283C30.3317 19.9835 30.4076 20.7543 30.2597 21.4978C30.1118 22.2414 29.7467 22.9245 29.2106 23.4606C28.6745 23.9967 27.9914 24.3618 27.2478 24.5097C26.5043 24.6576 25.7335 24.5817 25.033 24.2915C24.3326 24.0014 23.7339 23.5101 23.3127 22.8797C22.8915 22.2493 22.6667 21.5082 22.6667 20.75C22.6667 19.7333 23.0705 18.7583 23.7894 18.0394C24.5083 17.3205 25.4833 16.9167 26.5 16.9167Z" fill="white"/>
<path d="M26.5 28.417C24.2133 28.4195 22.021 29.329 20.404 30.946C18.7871 32.5629 17.8775 34.7553 17.875 37.042C17.875 37.2962 17.976 37.5399 18.1557 37.7196C18.3354 37.8994 18.5792 38.0003 18.8333 38.0003C19.0875 38.0003 19.3313 37.8994 19.511 37.7196C19.6907 37.5399 19.7917 37.2962 19.7917 37.042C19.7917 35.2628 20.4984 33.5565 21.7565 32.2985C23.0145 31.0404 24.7208 30.3337 26.5 30.3337C28.2792 30.3337 29.9855 31.0404 31.2435 32.2985C32.5016 33.5565 33.2083 35.2628 33.2083 37.042C33.2083 37.2962 33.3093 37.5399 33.489 37.7196C33.6687 37.8994 33.9125 38.0003 34.1667 38.0003C34.4208 38.0003 34.6646 37.8994 34.8443 37.7196C35.024 37.5399 35.125 37.2962 35.125 37.042C35.1225 34.7553 34.2129 32.5629 32.596 30.946C30.979 29.329 28.7867 28.4195 26.5 28.417Z" fill="white"/>
</g>
<defs>
<linearGradient id="paint0_linear_3816_1872" x1="43.6892" y1="45.8378" x2="10.027" y2="9.31081" gradientUnits="userSpaceOnUse">
<stop stop-color="#874DE1"/>
<stop offset="1" stop-color="#545EE8"/>
</linearGradient>
<clipPath id="clip0_3816_1872">
<rect width="23" height="23" fill="white" transform="translate(15 15)"/>
</clipPath>
</defs>
</svg>
