<svg width="37" height="37" viewBox="0 0 37 37" fill="none" xmlns="http://www.w3.org/2000/svg">
<path d="M0 18.5C0 8.28273 8.28273 0 18.5 0C28.7173 0 37 8.28273 37 18.5C37 28.7173 28.7173 37 18.5 37C8.28273 37 0 28.7173 0 18.5Z" fill="url(#paint0_linear_3745_2457)"/>
<g clip-path="url(#clip0_3745_2457)">
<path d="M26.9695 25.968L22.5644 21.5628C23.5646 20.341 24.1667 18.7812 24.1667 17.0833C24.1667 13.1776 20.9891 10 17.0833 10C13.1776 10 10 13.1776 10 17.0833C10 20.9891 13.1776 24.1667 17.0833 24.1667C18.7812 24.1667 20.341 23.5646 21.5628 22.5644L25.968 26.9695L26.9695 25.968ZM17.0833 22.75C13.9589 22.75 11.4167 20.2078 11.4167 17.0833C11.4167 13.9589 13.9589 11.4167 17.0833 11.4167C20.2078 11.4167 22.75 13.9589 22.75 17.0833C22.75 20.2078 20.2078 22.75 17.0833 22.75ZM18.8542 14.25V13.8958C18.8542 13.31 18.3775 12.8333 17.7917 12.8333H16.375C15.7892 12.8333 15.3125 13.31 15.3125 13.8958V14.25C14.3364 14.25 13.5417 15.044 13.5417 16.0208V19.9167H20.625V16.0208C20.625 15.044 19.831 14.25 18.8542 14.25ZM19.2083 18.5H14.9583V16.0208C14.9583 15.826 15.117 15.6667 15.3125 15.6667H16.375V17.0833H17.7917V15.6667H18.8542C19.0497 15.6667 19.2083 15.826 19.2083 16.0208V18.5Z" fill="white"/>
</g>
<defs>
<linearGradient id="paint0_linear_3745_2457" x1="30.5" y1="32" x2="7" y2="6.5" gradientUnits="userSpaceOnUse">
<stop stop-color="#33CBBF"/>
<stop offset="1" stop-color="#31C58C"/>
</linearGradient>
<clipPath id="clip0_3745_2457">
<rect width="17" height="17" fill="white" transform="translate(10 10)"/>
</clipPath>
</defs>
</svg>
