<svg width="37" height="37" viewBox="0 0 37 37" fill="none" xmlns="http://www.w3.org/2000/svg">
<path d="M0 18.5C0 8.28273 8.28273 0 18.5 0C28.7173 0 37 8.28273 37 18.5C37 28.7173 28.7173 37 18.5 37C8.28273 37 0 28.7173 0 18.5Z" fill="url(#paint0_linear_3731_2131)"/>
<path d="M18.5 20.625C19.6736 20.625 20.625 19.6736 20.625 18.5C20.625 17.3264 19.6736 16.375 18.5 16.375C17.3264 16.375 16.375 17.3264 16.375 18.5C16.375 19.6736 17.3264 20.625 18.5 20.625Z" stroke="white" stroke-width="1.5" stroke-miterlimit="10" stroke-linecap="round" stroke-linejoin="round"/>
<path d="M11.4167 19.1237V17.877C11.4167 17.1403 12.0188 16.5312 12.7626 16.5312C14.0447 16.5312 14.5688 15.6245 13.9242 14.5124C13.5559 13.8749 13.7755 13.0462 14.4201 12.6778L15.6455 11.9766C16.2051 11.6437 16.9276 11.842 17.2605 12.4016L17.3384 12.5362C17.9759 13.6483 19.0242 13.6483 19.6688 12.5362L19.7467 12.4016C20.0797 11.842 20.8022 11.6437 21.3617 11.9766L22.5872 12.6778C23.2317 13.0462 23.4513 13.8749 23.083 14.5124C22.4384 15.6245 22.9626 16.5312 24.2447 16.5312C24.9813 16.5312 25.5905 17.1333 25.5905 17.877V19.1237C25.5905 19.8603 24.9884 20.4695 24.2447 20.4695C22.9626 20.4695 22.4384 21.3762 23.083 22.4883C23.4513 23.1328 23.2317 23.9545 22.5872 24.3228L21.3617 25.0241C20.8022 25.357 20.0797 25.1587 19.7467 24.5991L19.6688 24.4645C19.0313 23.3524 17.983 23.3524 17.3384 24.4645L17.2605 24.5991C16.9276 25.1587 16.2051 25.357 15.6455 25.0241L14.4201 24.3228C13.7755 23.9545 13.5559 23.1258 13.9242 22.4883C14.5688 21.3762 14.0447 20.4695 12.7626 20.4695C12.0188 20.4695 11.4167 19.8603 11.4167 19.1237Z" stroke="white" stroke-width="1.5" stroke-miterlimit="10" stroke-linecap="round" stroke-linejoin="round"/>
<defs>
<linearGradient id="paint0_linear_3731_2131" x1="30.5" y1="32" x2="7" y2="6.5" gradientUnits="userSpaceOnUse">
<stop stop-color="#F17F40"/>
<stop offset="1" stop-color="#E8516B"/>
</linearGradient>
</defs>
</svg>
