<svg width="10" height="10" viewBox="0 0 10 10" fill="none" xmlns="http://www.w3.org/2000/svg">
<path d="M9.92551 1.37794L7.1057 9.32595C7.03825 9.52334 6.91098 9.69451 6.74179 9.8154C6.5726 9.93629 6.37 10.0008 6.16245 9.99994C5.9573 10.0023 5.75647 9.94066 5.58756 9.82355C5.41865 9.70644 5.28997 9.53958 5.2192 9.34592L4.16674 6.59008L4.93126 5.82124L6.16742 4.57812C6.2609 4.48411 6.31342 4.3566 6.31342 4.22365C6.31342 4.0907 6.2609 3.9632 6.16742 3.86919C6.07393 3.77518 5.94714 3.72236 5.81494 3.72236C5.68273 3.72236 5.55594 3.77518 5.46246 3.86919L4.22631 5.11231L3.44193 5.88614L0.706509 4.82275C0.502237 4.76087 0.323217 4.63446 0.195966 4.46227C0.0687146 4.29007 0 4.08123 0 3.86669C0 3.65215 0.0687146 3.44331 0.195966 3.27111C0.323217 3.09891 0.502237 2.97251 0.706509 2.91063L8.62979 0.0749103C8.81098 4.80731e-05 9.01014 -0.019242 9.20221 0.0194676C9.39428 0.0581771 9.57067 0.153157 9.70919 0.292452C9.8477 0.431748 9.94215 0.609135 9.98064 0.802289C10.0191 0.995442 9.99995 1.19573 9.92551 1.37794Z" fill="#231F20"/>
</svg>
