<svg width="37" height="37" viewBox="0 0 37 37" fill="none" xmlns="http://www.w3.org/2000/svg">
<path d="M0 18.5C0 8.28273 8.28273 0 18.5 0C28.7173 0 37 8.28273 37 18.5C37 28.7173 28.7173 37 18.5 37C8.28273 37 0 28.7173 0 18.5Z" fill="url(#paint0_linear_3745_2426)"/>
<path d="M26.223 14.631C25.7441 14.3916 25.1796 14.4419 24.7517 14.7642C24.7241 14.7847 24.6979 14.8081 24.6738 14.8322L23.4293 16.0881C23.2798 14.2712 21.7711 12.834 19.9167 12.834H13.5417C11.5888 12.8333 10 14.4221 10 16.3749V20.6249C10 22.5778 11.5888 24.1666 13.5417 24.1666H19.9167C21.7789 24.1666 23.294 22.7167 23.4314 20.8892L24.6753 22.1316C24.6993 22.1549 24.7241 22.1762 24.751 22.1967C25.0004 22.3837 25.295 22.4787 25.5925 22.4787C25.8072 22.4787 26.0218 22.4298 26.223 22.3292C26.7025 22.0898 27 21.6074 27 21.0726V15.889C27 15.3528 26.7025 14.8704 26.223 14.631ZM19.9167 22.7499H13.5417C12.3701 22.7499 11.4167 21.7965 11.4167 20.6249V16.3749C11.4167 15.2034 12.3701 14.2499 13.5417 14.2499H19.9167C21.0883 14.2499 22.0417 15.2034 22.0417 16.3749V20.6249C22.0417 21.7965 21.0883 22.7499 19.9167 22.7499ZM23.4583 18.9129V18.0707L25.5833 15.9259L25.601 21.0528L23.4583 18.9122V18.9129Z" fill="white"/>
<defs>
<linearGradient id="paint0_linear_3745_2426" x1="30.5" y1="32" x2="7" y2="6.5" gradientUnits="userSpaceOnUse">
<stop stop-color="#C833CB"/>
<stop offset="1" stop-color="#6231C5"/>
</linearGradient>
</defs>
</svg>
