<svg width="24" height="24" viewBox="0 0 24 24" fill="none" xmlns="http://www.w3.org/2000/svg">
<path d="M0.00997616 6.23139C0.339396 3.60132 0.751717 1.70649 0.76917 1.62685C0.862978 1.19814 1.19785 0.863248 1.62763 0.768343C1.70725 0.750889 3.60197 0.337452 6.23187 0.0091018C6.84381 -0.0694404 7.41102 0.369087 7.48847 0.986516C7.56592 1.60285 7.12742 2.16574 6.51112 2.24319C4.92074 2.44173 3.59324 2.67735 2.82423 2.82462C2.67697 3.59259 2.44245 4.92126 2.24283 6.51065C2.16757 7.13026 1.59054 7.56769 0.986238 7.48806C0.368848 7.41061 -0.0685612 6.84772 0.00888532 6.23139H0.00997616ZM6.51112 21.7566C4.92074 21.558 3.59324 21.3235 2.82423 21.1762C2.67697 20.4082 2.44245 19.0796 2.24283 17.4891C2.16539 16.8717 1.59817 16.4288 0.986238 16.5117C0.368848 16.5891 -0.0685612 17.152 0.00888532 17.7684C0.338306 20.3984 0.750626 22.2933 0.768079 22.3729C0.861887 22.8016 1.19785 23.1365 1.62654 23.2314C1.70616 23.2489 3.60088 23.6623 6.23078 23.9906C6.83508 24.0703 7.41321 23.6328 7.48738 23.0132C7.56483 22.3969 7.12742 21.834 6.51112 21.7566ZM23.0127 16.5117C22.4007 16.4288 21.8335 16.8717 21.7561 17.4891C21.5576 19.0785 21.3219 20.4072 21.1747 21.1762C20.4068 21.3235 19.0782 21.558 17.4878 21.7566C16.8715 21.834 16.4341 22.3969 16.5104 23.0132C16.5846 23.6328 17.1627 24.0703 17.767 23.9906C20.3969 23.6623 22.2917 23.2489 22.3713 23.2314C22.8 23.1376 23.1348 22.8016 23.2297 22.3729C23.2472 22.2933 23.6606 20.3984 23.9889 17.7684C24.0664 17.152 23.629 16.5891 23.0116 16.5117H23.0127ZM17.4889 2.24319C19.0793 2.44173 20.4068 2.67735 21.1758 2.82462C21.323 3.5915 21.5576 4.9169 21.7572 6.51065C21.8324 7.13026 22.4095 7.56769 23.0138 7.48806C23.6312 7.41061 24.0686 6.84772 23.9911 6.23139C23.6617 3.60132 23.2494 1.70649 23.2319 1.62685C23.1381 1.19814 22.8032 0.863248 22.3735 0.768343C22.2938 0.750889 20.3991 0.337452 17.7692 0.0091018C17.1573 -0.0694404 16.589 0.369087 16.5126 0.986516C16.4352 1.60285 16.8737 2.16574 17.49 2.24319H17.4889ZM10.6223 5.22888C10.6332 5.27579 10.8743 6.38738 10.8743 7.49679C10.8743 8.6062 10.6332 9.71779 10.6223 9.76469C10.5285 10.1934 10.1936 10.5283 9.76496 10.6221C9.71806 10.633 8.60654 10.8741 7.4972 10.8741C6.38786 10.8741 5.27634 10.633 5.22943 10.6221C4.80075 10.5283 4.46588 10.1934 4.37207 9.76469C4.36116 9.71779 4.12009 8.6062 4.12009 7.49679C4.12009 6.38738 4.36116 5.27579 4.37207 5.22888C4.46588 4.80017 4.80075 4.46528 5.22943 4.37146C5.27634 4.36056 6.38786 4.11948 7.4972 4.11948C8.60654 4.11948 9.71806 4.36056 9.76496 4.37146C10.1936 4.46528 10.5285 4.80017 10.6223 5.22888ZM8.6229 7.49679C8.6229 7.13244 8.58799 6.75827 8.54654 6.44738C7.92479 6.36447 7.0707 6.36447 6.44785 6.44738C6.4064 6.75827 6.3715 7.13244 6.3715 7.49679C6.3715 7.86114 6.4064 8.2353 6.44785 8.5462C7.0696 8.6291 7.9237 8.6291 8.54654 8.5462C8.58799 8.2353 8.6229 7.86114 8.6229 7.49679ZM10.6223 14.2351C10.6332 14.282 10.8743 15.3935 10.8743 16.503C10.8743 17.6124 10.6332 18.724 10.6223 18.7709C10.5285 19.1996 10.1936 19.5345 9.76496 19.6283C9.71806 19.6392 8.60654 19.8803 7.4972 19.8803C6.38786 19.8803 5.27634 19.6392 5.22943 19.6283C4.80075 19.5345 4.46588 19.1996 4.37207 18.7709C4.36116 18.724 4.12009 17.6124 4.12009 16.503C4.12009 15.3935 4.36116 14.282 4.37207 14.2351C4.46588 13.8063 4.80075 13.4714 5.22943 13.3776C5.27634 13.3667 6.38786 13.1256 7.4972 13.1256C8.60654 13.1256 9.71806 13.3667 9.76496 13.3776C10.1936 13.4714 10.5285 13.8063 10.6223 14.2351ZM8.6229 16.503C8.6229 16.1386 8.58799 15.7644 8.54654 15.4535C7.92479 15.3706 7.0707 15.3706 6.44785 15.4535C6.4064 15.7644 6.3715 16.1386 6.3715 16.503C6.3715 16.8673 6.4064 17.2415 6.44785 17.5524C7.0696 17.6353 7.9237 17.6353 8.54654 17.5524C8.58799 17.2415 8.6229 16.8673 8.6229 16.503ZM18.7706 10.6221C18.7237 10.633 17.6121 10.8741 16.5028 10.8741C15.3935 10.8741 14.2819 10.633 14.235 10.6221C13.8064 10.5283 13.4715 10.1934 13.3777 9.76469C13.3668 9.71779 13.1257 8.6062 13.1257 7.49679C13.1257 6.38738 13.3668 5.27579 13.3777 5.22888C13.4715 4.80017 13.8064 4.46528 14.235 4.37146C14.2819 4.36056 15.3935 4.11948 16.5028 4.11948C17.6121 4.11948 18.7237 4.36056 18.7706 4.37146C19.1993 4.46528 19.5341 4.80017 19.6279 5.22888C19.6388 5.27579 19.8799 6.38738 19.8799 7.49679C19.8799 8.6062 19.6388 9.71779 19.6279 9.76469C19.5341 10.1934 19.1993 10.5283 18.7706 10.6221ZM17.6285 7.49679C17.6285 7.13244 17.5936 6.75827 17.5522 6.44738C16.9304 6.36447 16.0763 6.36447 15.4535 6.44738C15.412 6.75827 15.3771 7.13244 15.3771 7.49679C15.3771 7.86114 15.412 8.2353 15.4535 8.5462C16.0752 8.6291 16.9293 8.6291 17.5522 8.5462C17.5936 8.2353 17.6285 7.86114 17.6285 7.49679ZM14.2514 13.1256C13.6296 13.1256 13.1257 13.6296 13.1257 14.2514C13.1257 14.8732 13.6296 15.3772 14.2514 15.3772C14.8732 15.3772 15.3771 14.8732 15.3771 14.2514C15.3771 13.6296 14.8732 13.1256 14.2514 13.1256ZM18.7542 13.1256C18.1325 13.1256 17.6285 13.6296 17.6285 14.2514C17.6285 14.8732 18.1325 15.3772 18.7542 15.3772C19.376 15.3772 19.8799 14.8732 19.8799 14.2514C19.8799 13.6296 19.376 13.1256 18.7542 13.1256ZM14.2514 17.6287C13.6296 17.6287 13.1257 18.1327 13.1257 18.7545C13.1257 19.3763 13.6296 19.8803 14.2514 19.8803C14.8732 19.8803 15.3771 19.3763 15.3771 18.7545C15.3771 18.1327 14.8732 17.6287 14.2514 17.6287Z" fill="#265DF5"/>
</svg>
