<svg width="22" height="22" viewBox="0 0 22 22" fill="none" xmlns="http://www.w3.org/2000/svg">
<path d="M14.3759 2.79337L6.3615 5.45595C0.974216 7.25763 0.974216 10.1953 6.3615 11.9881L8.74007 12.778L9.52997 15.1566C11.3228 20.5439 14.2694 20.5439 16.0622 15.1566L18.7336 7.15112C19.9229 3.55664 17.9703 1.59521 14.3759 2.79337ZM14.6599 7.56826L11.2873 10.9586C11.1541 11.0917 10.9855 11.1539 10.8169 11.1539C10.6483 11.1539 10.4796 11.0917 10.3465 10.9586C10.0891 10.7012 10.0891 10.2752 10.3465 10.0178L13.7191 6.62748C13.9765 6.3701 14.4025 6.3701 14.6599 6.62748C14.9173 6.88487 14.9173 7.31088 14.6599 7.56826Z" fill="#2B64A8"/>
</svg>
