<svg width="17" height="17" viewBox="0 0 17 17" fill="none" xmlns="http://www.w3.org/2000/svg">
<path d="M5.66663 15.5833H11.3333C14.1808 15.5833 14.6908 14.4429 14.8395 13.0546L15.3708 7.38792C15.562 5.65958 15.0662 4.25 12.0416 4.25H4.95829C1.93371 4.25 1.43788 5.65958 1.62913 7.38792L2.16038 13.0546C2.30913 14.4429 2.81913 15.5833 5.66663 15.5833Z" stroke="#64748B" stroke-width="1.5" stroke-miterlimit="10" stroke-linecap="round" stroke-linejoin="round"/>
<path d="M5.66663 4.24999V3.68332C5.66663 2.42957 5.66663 1.41666 7.93329 1.41666H9.06663C11.3333 1.41666 11.3333 2.42957 11.3333 3.68332V4.24999" stroke="#64748B" stroke-width="1.5" stroke-miterlimit="10" stroke-linecap="round" stroke-linejoin="round"/>
<path d="M9.91671 9.20833V9.91667C9.91671 9.92375 9.91671 9.92375 9.91671 9.93083C9.91671 10.7029 9.90962 11.3333 8.50004 11.3333C7.09754 11.3333 7.08337 10.71 7.08337 9.93792V9.20833C7.08337 8.5 7.08337 8.5 7.79171 8.5H9.20837C9.91671 8.5 9.91671 8.5 9.91671 9.20833Z" stroke="#64748B" stroke-width="1.5" stroke-miterlimit="10" stroke-linecap="round" stroke-linejoin="round"/>
<path d="M15.3354 7.79166C13.6991 8.98166 11.8291 9.68999 9.91663 9.93082" stroke="#64748B" stroke-width="1.5" stroke-miterlimit="10" stroke-linecap="round" stroke-linejoin="round"/>
<path d="M1.85583 7.98291C3.44958 9.07374 5.24875 9.73249 7.08333 9.93791" stroke="#64748B" stroke-width="1.5" stroke-miterlimit="10" stroke-linecap="round" stroke-linejoin="round"/>
</svg>
