<svg width="17" height="17" viewBox="0 0 17 17" fill="none" xmlns="http://www.w3.org/2000/svg">
<path d="M5.66663 1.41666V3.54166" stroke="#64748B" stroke-width="1.5" stroke-miterlimit="10" stroke-linecap="round" stroke-linejoin="round"/>
<path d="M11.3334 1.41666V3.54166" stroke="#64748B" stroke-width="1.5" stroke-miterlimit="10" stroke-linecap="round" stroke-linejoin="round"/>
<path d="M11.3333 2.47916C13.6921 2.60666 14.875 3.50624 14.875 6.83541V11.2129C14.875 14.1312 14.1667 15.5904 10.625 15.5904H6.375C2.83333 15.5904 2.125 14.1312 2.125 11.2129V6.83541C2.125 3.50624 3.30792 2.61374 5.66667 2.47916H11.3333Z" stroke="#64748B" stroke-width="1.5" stroke-miterlimit="10" stroke-linecap="round" stroke-linejoin="round"/>
<path d="M14.698 12.4667H2.30212" stroke="#64748B" stroke-width="1.5" stroke-miterlimit="10" stroke-linecap="round" stroke-linejoin="round"/>
<path d="M8.49996 5.84375C7.62871 5.84375 6.89204 6.31833 6.89204 7.23917C6.89204 7.67833 7.09746 8.01125 7.40913 8.22375C6.97704 8.47875 6.72913 8.88958 6.72913 9.37125C6.72913 10.2496 7.40204 10.795 8.49996 10.795C9.59079 10.795 10.2708 10.2496 10.2708 9.37125C10.2708 8.88958 10.0229 8.47167 9.58371 8.22375C9.90246 8.00417 10.1008 7.67833 10.1008 7.23917C10.1008 6.31833 9.37121 5.84375 8.49996 5.84375ZM8.49996 7.85542C8.13163 7.85542 7.86246 7.63583 7.86246 7.28875C7.86246 6.93458 8.13163 6.72917 8.49996 6.72917C8.86829 6.72917 9.13746 6.93458 9.13746 7.28875C9.13746 7.63583 8.86829 7.85542 8.49996 7.85542ZM8.49996 9.91667C8.03246 9.91667 7.69246 9.68292 7.69246 9.25792C7.69246 8.83292 8.03246 8.60625 8.49996 8.60625C8.96746 8.60625 9.30746 8.84 9.30746 9.25792C9.30746 9.68292 8.96746 9.91667 8.49996 9.91667Z" fill="#64748B"/>
</svg>
