<svg width="32" height="32" viewBox="0 0 32 32" fill="none" xmlns="http://www.w3.org/2000/svg">
<rect width="32" height="32" rx="16" fill="#3562E9" fill-opacity="0.1"/>
<path d="M13.3333 9.33301V11.9997" stroke="#3562E9" stroke-width="1.33333" stroke-linecap="round" stroke-linejoin="round"/>
<path d="M18.6667 9.33301V11.9997" stroke="#3562E9" stroke-width="1.33333" stroke-linecap="round" stroke-linejoin="round"/>
<path d="M20.6667 10.667H11.3333C10.597 10.667 10 11.2639 10 12.0003V21.3337C10 22.07 10.597 22.667 11.3333 22.667H20.6667C21.403 22.667 22 22.07 22 21.3337V12.0003C22 11.2639 21.403 10.667 20.6667 10.667Z" stroke="#3562E9" stroke-width="1.33333" stroke-linecap="round" stroke-linejoin="round"/>
<path d="M10 14.667H22" stroke="#3562E9" stroke-width="1.33333" stroke-linecap="round" stroke-linejoin="round"/>
<path d="M13.3333 17.333H13.34" stroke="#3562E9" stroke-width="1.33333" stroke-linecap="round" stroke-linejoin="round"/>
<path d="M16 17.333H16.0067" stroke="#3562E9" stroke-width="1.33333" stroke-linecap="round" stroke-linejoin="round"/>
<path d="M18.6667 17.333H18.6734" stroke="#3562E9" stroke-width="1.33333" stroke-linecap="round" stroke-linejoin="round"/>
<path d="M13.3333 20H13.34" stroke="#3562E9" stroke-width="1.33333" stroke-linecap="round" stroke-linejoin="round"/>
<path d="M16 20H16.0067" stroke="#3562E9" stroke-width="1.33333" stroke-linecap="round" stroke-linejoin="round"/>
<path d="M18.6667 20H18.6734" stroke="#3562E9" stroke-width="1.33333" stroke-linecap="round" stroke-linejoin="round"/>
</svg>
