<svg width="23" height="23" viewBox="0 0 23 23" fill="none" xmlns="http://www.w3.org/2000/svg">
<path d="M6.47817 21.0837H16.5215C19.1665 21.0837 20.2207 19.4641 20.3453 17.4899L20.8436 9.57408C20.9778 7.50408 19.3294 5.75033 17.2498 5.75033C16.6653 5.75033 16.1286 5.41491 15.8603 4.89741L15.1703 3.50783C14.7294 2.63574 13.5794 1.91699 12.6019 1.91699H10.4073C9.42025 1.91699 8.27025 2.63574 7.82942 3.50783L7.13942 4.89741C6.87108 5.41491 6.33442 5.75033 5.74984 5.75033C3.67025 5.75033 2.02192 7.50408 2.15609 9.57408L2.65442 17.4899C2.76942 19.4641 3.83317 21.0837 6.47817 21.0837Z" stroke="#93ADF5" stroke-width="1.5" stroke-linecap="round" stroke-linejoin="round"/>
<path d="M10.0625 7.66699H12.9375" stroke="#93ADF5" stroke-width="1.5" stroke-linecap="round" stroke-linejoin="round"/>
<path d="M11.5003 17.2497C13.2157 17.2497 14.6149 15.8505 14.6149 14.1351C14.6149 12.4197 13.2157 11.0205 11.5003 11.0205C9.78491 11.0205 8.38574 12.4197 8.38574 14.1351C8.38574 15.8505 9.78491 17.2497 11.5003 17.2497Z" stroke="#93ADF5" stroke-width="1.5" stroke-linecap="round" stroke-linejoin="round"/>
</svg>
