<svg width="18" height="22" viewBox="0 0 18 22" fill="none" xmlns="http://www.w3.org/2000/svg">
<path d="M16.5487 0L16.6258 0.00367291C17.005 0.0422852 17.3009 0.36281 17.3009 0.752212V20.4978C17.3009 20.9132 16.9641 21.25 16.5487 21.25H0.752212C0.336777 21.25 0 20.9132 0 20.4978V4.70133L0.00367291 4.62713C0.0207407 4.45488 0.0969043 4.29296 0.220375 4.16949L4.16949 0.220375L4.22458 0.170423C4.35844 0.0607241 4.52674 0 4.70133 0H16.5487ZM1.50442 5.01279V19.7456H15.7965V1.50442H5.01279L1.50442 5.01279Z" fill="white"/>
<path d="M5.45352 0.751953V4.70107C5.45352 5.1165 5.11675 5.45328 4.70131 5.45328H0.752197V3.94886H3.9491V0.751953H5.45352Z" fill="white"/>
<path d="M13.9155 9.21484V10.7193H7.33362V9.21484H13.9155Z" fill="white"/>
<path d="M13.9165 12.5059V14.0103H3.3855V12.5059H13.9165Z" fill="white"/>
<path d="M13.9154 15.7969V17.3013H7.3335V15.7969H13.9154Z" fill="white"/>
</svg>
