<svg width="14" height="14" viewBox="0 0 14 14" fill="none" xmlns="http://www.w3.org/2000/svg">
<path d="M13.9222 6.68892C13.8444 6.61114 13.8444 6.53336 13.7667 6.45558L11.4333 4.12225C11.1222 3.81114 10.6556 3.81114 10.3444 4.12225C10.0333 4.43336 10.0333 4.90003 10.3444 5.21114L11.3556 6.22225H7.77778C7.31111 6.22225 7 6.53336 7 7.00003C7 7.46669 7.31111 7.7778 7.77778 7.7778H11.3556L10.3444 8.78892C10.0333 9.10003 10.0333 9.56669 10.3444 9.8778C10.5 10.0334 10.7333 10.1111 10.8889 10.1111C11.0444 10.1111 11.2778 10.0334 11.4333 9.8778L13.7667 7.54447C13.8444 7.46669 13.9222 7.38892 13.9222 7.31114C14 7.0778 14 6.92225 13.9222 6.68892Z" fill="#64748B"/>
<path d="M9.72222 11.7444C8.86667 12.2111 7.93333 12.4444 7 12.4444C3.96667 12.4444 1.55556 10.0333 1.55556 7C1.55556 3.96667 3.96667 1.55556 7 1.55556C7.93333 1.55556 8.86667 1.78889 9.72222 2.25556C10.1111 2.48889 10.5778 2.33333 10.8111 1.94444C11.0444 1.55556 10.8889 1.08889 10.5 0.855555C9.41111 0.311111 8.24444 0 7 0C3.11111 0 0 3.11111 0 7C0 10.8889 3.11111 14 7 14C8.24444 14 9.41111 13.6889 10.5 13.0667C10.8889 12.8333 10.9667 12.3667 10.8111 11.9778C10.5778 11.6667 10.1111 11.5111 9.72222 11.7444Z" fill="#64748B"/>
</svg>
