<svg width="20" height="20" viewBox="0 0 20 20" fill="none" xmlns="http://www.w3.org/2000/svg">
<circle cx="10" cy="10" r="10" fill="#265DF5"/>
<path d="M9.9999 6.41016C10.1189 6.41016 10.233 6.45743 10.3172 6.54158C10.4013 6.62573 10.4486 6.73987 10.4486 6.85887V9.55118H13.1409C13.2599 9.55118 13.3741 9.59846 13.4582 9.68261C13.5424 9.76676 13.5896 9.88089 13.5896 9.9999C13.5896 10.1189 13.5424 10.233 13.4582 10.3172C13.3741 10.4013 13.2599 10.4486 13.1409 10.4486H10.4486V13.1409C10.4486 13.2599 10.4013 13.3741 10.3172 13.4582C10.233 13.5424 10.1189 13.5896 9.9999 13.5896C9.88089 13.5896 9.76676 13.5424 9.68261 13.4582C9.59846 13.3741 9.55118 13.2599 9.55118 13.1409V10.4486H6.85887C6.73987 10.4486 6.62573 10.4013 6.54158 10.3172C6.45743 10.233 6.41016 10.1189 6.41016 9.9999C6.41016 9.88089 6.45743 9.76676 6.54158 9.68261C6.62573 9.59846 6.73987 9.55118 6.85887 9.55118H9.55118V6.85887C9.55118 6.73987 9.59846 6.62573 9.68261 6.54158C9.76676 6.45743 9.88089 6.41016 9.9999 6.41016Z" fill="white"/>
</svg>
