<svg width="17" height="17" viewBox="0 0 17 17" fill="none" xmlns="http://www.w3.org/2000/svg">
<path d="M14.5208 8.00418V4.98669C14.5208 2.13211 13.855 1.41669 11.1775 1.41669H5.82246C3.14496 1.41669 2.47913 2.13211 2.47913 4.98669V12.9625C2.47913 14.8467 3.5133 15.2929 4.76705 13.9471L4.77412 13.94C5.35495 13.3238 6.24037 13.3733 6.74328 14.0463L7.45871 15.0025" stroke="#64748B" stroke-width="1.5" stroke-linecap="round" stroke-linejoin="round"/>
<path d="M5.66663 4.95831H11.3333" stroke="#64748B" stroke-width="1.5" stroke-linecap="round" stroke-linejoin="round"/>
<path d="M6.375 7.79169H10.625" stroke="#64748B" stroke-width="1.5" stroke-linecap="round" stroke-linejoin="round"/>
<path d="M12.8995 10.4623L10.392 12.9698C10.2929 13.069 10.2008 13.2531 10.1795 13.3877L10.0449 14.344C9.99534 14.691 10.2362 14.9319 10.5833 14.8823L11.5395 14.7477C11.6741 14.7265 11.8653 14.6344 11.9574 14.5352L14.4649 12.0277C14.897 11.5956 15.1024 11.0927 14.4649 10.4552C13.8345 9.82479 13.3316 10.0302 12.8995 10.4623Z" stroke="#64748B" stroke-width="1.5" stroke-miterlimit="10" stroke-linecap="round" stroke-linejoin="round"/>
<path d="M12.537 10.8235C12.7495 11.5885 13.3445 12.1835 14.1095 12.396" stroke="#64748B" stroke-width="1.5" stroke-miterlimit="10" stroke-linecap="round" stroke-linejoin="round"/>
</svg>
