<svg width="24" height="23" viewBox="0 0 24 23" fill="none" xmlns="http://www.w3.org/2000/svg">
<path d="M23.3347 12.3815L17.6719 9.30138C17.5341 9.22644 17.3679 9.22644 17.2301 9.30138L14.87 10.983L11.7882 12.2614L9.1532 11.245L6.34618 9.30138C6.20842 9.22644 6.04219 9.22644 5.90438 9.30138L0.241532 12.3815C0.0885652 12.465 -0.000977197 12.6256 0.00013226 12.7904V18.9478C0.00013226 19.1172 0.0927719 19.273 0.241532 19.3539L5.90328 22.4334C6.04228 22.5097 6.21281 22.5072 6.34729 22.4334L11.7882 19.474L17.229 22.4334C17.367 22.5091 17.5376 22.5078 17.673 22.4334L23.3347 19.3539C23.4835 19.273 23.5761 19.1172 23.5761 18.9478V12.7903C23.5772 12.6265 23.4872 12.4644 23.3347 12.3815ZM5.66303 21.2503L0.924726 18.673V13.484L5.66303 15.4811V21.2503ZM6.12531 14.6726L1.52716 12.7346L6.12531 10.2337L8.81421 11.245L10.7234 12.7347L6.12531 14.6726ZM11.3259 18.6731L6.58758 21.2503V15.4811L11.3259 13.4841V18.6731ZM16.9887 21.2503L12.2504 18.673V13.484L16.9887 15.4811V21.2503ZM17.451 14.6726L12.8529 12.7346L14.9778 11.1217L17.451 10.2337L22.0492 12.7347L17.451 14.6726ZM22.6516 18.673L17.9133 21.2502V15.4811L22.6516 13.484V18.673Z" fill="white"/>
<path d="M17.6713 3.13639L12.0085 0.056262C11.8707 -0.0186726 11.7045 -0.0186726 11.5667 0.056262L5.90382 3.13639C5.75118 3.21965 5.66132 3.38112 5.66242 3.54527V9.70272C5.66242 9.87209 5.75506 10.0279 5.90382 10.1088C11.949 13.3954 11.5787 13.2048 11.6669 13.2287C11.7889 13.2617 11.912 13.2418 12.0096 13.1883L17.6713 10.1088C17.8201 10.0279 17.9127 9.87209 17.9127 9.70272V3.54523C17.9138 3.38246 17.8244 3.21951 17.6713 3.13639ZM11.3253 12.0052L6.58702 9.42794V4.23892L11.3253 6.23594V12.0052ZM11.7876 5.42751L7.18945 3.48952L11.7876 0.988576L16.3857 3.48957L11.7876 5.42751ZM16.9882 9.42789L12.2499 12.0052V6.23599L16.9882 4.23896V9.42789Z" fill="white"/>
</svg>
