<svg width="17" height="17" viewBox="0 0 17 17" fill="none" xmlns="http://www.w3.org/2000/svg">
<path d="M8.5 10.625C9.6736 10.625 10.625 9.6736 10.625 8.5C10.625 7.32639 9.6736 6.375 8.5 6.375C7.32639 6.375 6.375 7.32639 6.375 8.5C6.375 9.6736 7.32639 10.625 8.5 10.625Z" stroke="#64748B" stroke-width="1.5" stroke-miterlimit="10" stroke-linecap="round" stroke-linejoin="round"/>
<path d="M1.41663 9.12331V7.87664C1.41663 7.13998 2.01871 6.53081 2.76246 6.53081C4.04454 6.53081 4.56871 5.62414 3.92413 4.51206C3.55579 3.87456 3.77538 3.04581 4.41996 2.67748L5.64538 1.97623C6.20496 1.64331 6.92746 1.84164 7.26038 2.40123L7.33829 2.53581C7.97579 3.64789 9.02413 3.64789 9.66871 2.53581L9.74663 2.40123C10.0795 1.84164 10.802 1.64331 11.3616 1.97623L12.587 2.67748C13.2316 3.04581 13.4512 3.87456 13.0829 4.51206C12.4383 5.62414 12.9625 6.53081 14.2445 6.53081C14.9812 6.53081 15.5904 7.13289 15.5904 7.87664V9.12331C15.5904 9.85998 14.9883 10.4691 14.2445 10.4691C12.9625 10.4691 12.4383 11.3758 13.0829 12.4879C13.4512 13.1325 13.2316 13.9541 12.587 14.3225L11.3616 15.0237C10.802 15.3566 10.0795 15.1583 9.74663 14.5987L9.66871 14.4641C9.03121 13.3521 7.98288 13.3521 7.33829 14.4641L7.26038 14.5987C6.92746 15.1583 6.20496 15.3566 5.64538 15.0237L4.41996 14.3225C3.77538 13.9541 3.55579 13.1254 3.92413 12.4879C4.56871 11.3758 4.04454 10.4691 2.76246 10.4691C2.01871 10.4691 1.41663 9.85998 1.41663 9.12331Z" stroke="#64748B" stroke-width="1.5" stroke-miterlimit="10" stroke-linecap="round" stroke-linejoin="round"/>
</svg>
