<svg width="30" height="30" viewBox="0 0 30 30" fill="none" xmlns="http://www.w3.org/2000/svg">
<rect width="30" height="30" rx="15" fill="#FF7056" fill-opacity="0.28"/>
<path d="M20.25 11.4884C18.3075 11.2959 16.3533 11.1968 14.405 11.1968C13.25 11.1968 12.095 11.2551 10.94 11.3718L9.75 11.4884" stroke="#FF7878" stroke-width="1.2" stroke-linecap="round" stroke-linejoin="round"/>
<path d="M12.9585 10.8992L13.0868 10.1351C13.1802 9.58091 13.2502 9.16675 14.236 9.16675H15.7643C16.7502 9.16675 16.826 9.60425 16.9135 10.1409L17.0418 10.8992" stroke="#FF7878" stroke-width="1.2" stroke-linecap="round" stroke-linejoin="round"/>
<path d="M18.9961 13.3318L18.6169 19.206C18.5527 20.1218 18.5002 20.8335 16.8727 20.8335H13.1277C11.5002 20.8335 11.4477 20.1218 11.3836 19.206L11.0044 13.3318" stroke="#FF7878" stroke-width="1.2" stroke-linecap="round" stroke-linejoin="round"/>
<path d="M14.0259 17.625H15.9684" stroke="#FF7878" stroke-width="1.2" stroke-linecap="round" stroke-linejoin="round"/>
<path d="M13.5415 15.2917H16.4582" stroke="#FF7878" stroke-width="1.2" stroke-linecap="round" stroke-linejoin="round"/>
</svg>
