<svg width="16" height="16" viewBox="0 0 16 16" fill="none" xmlns="http://www.w3.org/2000/svg">
<path d="M8.3535 13.6134H4.14016C2.0335 13.6134 1.3335 12.2134 1.3335 10.8067V5.19339C1.3335 3.08672 2.0335 2.38672 4.14016 2.38672H8.3535C10.4602 2.38672 11.1602 3.08672 11.1602 5.19339V10.8067C11.1602 12.9134 10.4535 13.6134 8.3535 13.6134Z" stroke="white" stroke-linecap="round" stroke-linejoin="round"/>
<path d="M13.0135 11.4L11.1602 10.1V5.8933L13.0135 4.5933C13.9202 3.95997 14.6668 4.34663 14.6668 5.45997V10.54C14.6668 11.6533 13.9202 12.04 13.0135 11.4Z" stroke="white" stroke-linecap="round" stroke-linejoin="round"/>
<path d="M7.6665 7.33337C8.21879 7.33337 8.6665 6.88566 8.6665 6.33337C8.6665 5.78109 8.21879 5.33337 7.6665 5.33337C7.11422 5.33337 6.6665 5.78109 6.6665 6.33337C6.6665 6.88566 7.11422 7.33337 7.6665 7.33337Z" stroke="white" stroke-linecap="round" stroke-linejoin="round"/>
</svg>
